G04 EAGLE Gerber RS-274X export*
G75*
%MOMM*%
%FSLAX34Y34*%
%LPD*%
%INTop Side*%
%IPPOS*%
%AMOC8*
5,1,8,0,0,1.08239X$1,22.5*%
G01*
%ADD10R,1.000000X1.100000*%
%ADD11R,1.100000X1.000000*%
%ADD12R,0.900000X0.850000*%
%ADD13R,0.850000X0.900000*%
%ADD14R,2.500000X1.200000*%
%ADD15C,1.879600*%
%ADD16R,1.400000X1.200000*%
%ADD17R,0.280000X1.500000*%
%ADD18R,0.400000X1.500000*%
%ADD19R,1.500000X0.400000*%
%ADD20R,1.500000X0.280000*%
%ADD21R,0.220000X0.710000*%
%ADD22R,0.710000X0.220000*%
%ADD23R,1.700000X1.700000*%
%ADD24C,1.056400*%
%ADD25R,2.235200X1.219200*%
%ADD26R,2.200000X3.600000*%
%ADD27R,2.000000X1.500000*%
%ADD28R,2.000000X3.800000*%
%ADD29C,0.254000*%
%ADD30C,0.203200*%
%ADD31C,0.756400*%
%ADD32C,0.508000*%
%ADD33C,0.609600*%


D10*
X391160Y445380D03*
X391160Y428380D03*
X228600Y605400D03*
X228600Y588400D03*
D11*
X201540Y657860D03*
X184540Y657860D03*
D10*
X226060Y709540D03*
X226060Y692540D03*
D11*
X542680Y444500D03*
X559680Y444500D03*
X513960Y444500D03*
X496960Y444500D03*
D10*
X419100Y445380D03*
X419100Y428380D03*
D11*
X270900Y896620D03*
X287900Y896620D03*
D12*
X553720Y888280D03*
X553720Y899880D03*
X508000Y906060D03*
X508000Y917660D03*
X487680Y846540D03*
X487680Y834940D03*
D13*
X428540Y838200D03*
X440140Y838200D03*
X440140Y878840D03*
X428540Y878840D03*
D12*
X492760Y917660D03*
X492760Y906060D03*
D14*
X400800Y837800D03*
X335800Y826800D03*
X400800Y877800D03*
X400800Y907800D03*
D15*
X292100Y927100D03*
X266700Y927100D03*
X241300Y927100D03*
X215900Y927100D03*
X190500Y927100D03*
X165100Y927100D03*
X139700Y927100D03*
X137160Y546100D03*
X111760Y546100D03*
X431800Y381000D03*
X457200Y381000D03*
D10*
X266700Y372500D03*
X266700Y389500D03*
X304800Y372500D03*
X304800Y389500D03*
X208280Y377580D03*
X208280Y394580D03*
X381000Y372500D03*
X381000Y389500D03*
X342900Y372500D03*
X342900Y389500D03*
D16*
X517320Y398400D03*
X539320Y398400D03*
X517320Y414400D03*
X539320Y414400D03*
D17*
X389300Y473300D03*
X394300Y473300D03*
X399300Y473300D03*
X404300Y473300D03*
X409300Y473300D03*
X414300Y473300D03*
X419300Y473300D03*
X424300Y473300D03*
X369300Y473300D03*
X374300Y473300D03*
X379300Y473300D03*
X384300Y473300D03*
X349300Y473300D03*
X354300Y473300D03*
X359300Y473300D03*
X364300Y473300D03*
X429300Y473300D03*
X434300Y473300D03*
X439300Y473300D03*
X444300Y473300D03*
X329300Y473300D03*
X334300Y473300D03*
X339300Y473300D03*
X344300Y473300D03*
X449300Y473300D03*
X454300Y473300D03*
X459300Y473300D03*
X464300Y473300D03*
X469300Y473300D03*
X474300Y473300D03*
X309300Y473300D03*
D18*
X559900Y473300D03*
X303700Y473300D03*
D17*
X314300Y473300D03*
X319300Y473300D03*
X324300Y473300D03*
X479300Y473300D03*
X484300Y473300D03*
X489300Y473300D03*
X494300Y473300D03*
X499300Y473300D03*
X504300Y473300D03*
X509300Y473300D03*
X514300Y473300D03*
X519300Y473300D03*
X524300Y473300D03*
X529300Y473300D03*
X534300Y473300D03*
X539300Y473300D03*
X544300Y473300D03*
X549300Y473300D03*
X554300Y473300D03*
D19*
X580800Y494200D03*
D20*
X580800Y499800D03*
X580800Y504800D03*
X580800Y509800D03*
X580800Y514800D03*
X580800Y519800D03*
X580800Y524800D03*
X580800Y529800D03*
X580800Y534800D03*
X580800Y539800D03*
X580800Y544800D03*
X580800Y549800D03*
X580800Y554800D03*
X580800Y559800D03*
X580800Y564800D03*
X580800Y569800D03*
X580800Y574800D03*
X580800Y579800D03*
X580800Y584800D03*
X580800Y589800D03*
X580800Y594800D03*
X580800Y599800D03*
X580800Y604800D03*
X580800Y609800D03*
X580800Y614800D03*
X580800Y619800D03*
X580800Y624800D03*
X580800Y629800D03*
X580800Y634800D03*
X580800Y639800D03*
X580800Y644800D03*
X580800Y649800D03*
X580800Y654800D03*
X580800Y659800D03*
X580800Y664800D03*
X580800Y669800D03*
X580800Y674800D03*
X580800Y679800D03*
X580800Y684800D03*
X580800Y689800D03*
X580800Y694800D03*
X580800Y699800D03*
X580800Y704800D03*
X580800Y709800D03*
X580800Y714800D03*
X580800Y719800D03*
X580800Y724800D03*
X580800Y729800D03*
X580800Y734800D03*
X580800Y739800D03*
X580800Y744800D03*
D19*
X580800Y750400D03*
D18*
X559900Y771300D03*
D17*
X554300Y771300D03*
X549300Y771300D03*
X544300Y771300D03*
X539300Y771300D03*
X534300Y771300D03*
X529300Y771300D03*
X524300Y771300D03*
X519300Y771300D03*
X514300Y771300D03*
X509300Y771300D03*
X504300Y771300D03*
X499300Y771300D03*
X494300Y771300D03*
X489300Y771300D03*
X484300Y771300D03*
X479300Y771300D03*
X474300Y771300D03*
X469300Y771300D03*
X464300Y771300D03*
X459300Y771300D03*
X454300Y771300D03*
X449300Y771300D03*
X444300Y771300D03*
X439300Y771300D03*
X434300Y771300D03*
X429300Y771300D03*
X424300Y771300D03*
X419300Y771300D03*
X414300Y771300D03*
X409300Y771300D03*
X404300Y771300D03*
X399300Y771300D03*
X394300Y771300D03*
X389300Y771300D03*
X384300Y771300D03*
X379300Y771300D03*
X374300Y771300D03*
X369300Y771300D03*
X364300Y771300D03*
X359300Y771300D03*
X354300Y771300D03*
X349300Y771300D03*
X344300Y771300D03*
X339300Y771300D03*
X334300Y771300D03*
X329300Y771300D03*
X324300Y771300D03*
X319300Y771300D03*
X314300Y771300D03*
X309300Y771300D03*
D18*
X303700Y771300D03*
D19*
X282800Y750400D03*
D20*
X282800Y744800D03*
X282800Y739800D03*
X282800Y734800D03*
X282800Y729800D03*
X282800Y724800D03*
X282800Y719800D03*
X282800Y714800D03*
X282800Y709800D03*
X282800Y704800D03*
X282800Y699800D03*
X282800Y694800D03*
X282800Y689800D03*
X282800Y684800D03*
X282800Y679800D03*
X282800Y674800D03*
X282800Y669800D03*
X282800Y664800D03*
X282800Y659800D03*
X282800Y654800D03*
X282800Y649800D03*
X282800Y644800D03*
X282800Y639800D03*
X282800Y634800D03*
X282800Y629800D03*
X282800Y624800D03*
X282800Y619800D03*
X282800Y614800D03*
X282800Y609800D03*
X282800Y604800D03*
X282800Y599800D03*
X282800Y594800D03*
X282800Y589800D03*
X282800Y584800D03*
X282800Y579800D03*
X282800Y574800D03*
X282800Y569800D03*
X282800Y564800D03*
X282800Y559800D03*
X282800Y554800D03*
X282800Y549800D03*
X282800Y544800D03*
X282800Y539800D03*
X282800Y534800D03*
X282800Y529800D03*
X282800Y524800D03*
X282800Y519800D03*
X282800Y514800D03*
X282800Y509800D03*
X282800Y504800D03*
X282800Y499800D03*
D19*
X282800Y494200D03*
D21*
X516000Y890350D03*
X512000Y890350D03*
X508000Y890350D03*
X504000Y890350D03*
X500000Y890350D03*
D22*
X493950Y884300D03*
X493950Y880300D03*
X493950Y876300D03*
X493950Y872300D03*
X493950Y868300D03*
D21*
X500000Y862250D03*
X504000Y862250D03*
X508000Y862250D03*
X512000Y862250D03*
X516000Y862250D03*
D22*
X522050Y868300D03*
X522050Y872300D03*
X522050Y876300D03*
X522050Y880300D03*
X522050Y884300D03*
D23*
X508000Y876300D03*
D24*
X120650Y444500D03*
X133350Y444500D03*
X120650Y457200D03*
X133350Y457200D03*
X120650Y469900D03*
X133350Y469900D03*
X120650Y431800D03*
X133350Y431800D03*
X120650Y419100D03*
X133350Y419100D03*
D25*
X201168Y586486D03*
X201168Y609600D03*
X201168Y632714D03*
D26*
X139190Y609600D03*
D27*
X199140Y690740D03*
X199140Y713740D03*
X199140Y736740D03*
D28*
X136140Y713740D03*
D11*
X193920Y764540D03*
X176920Y764540D03*
D15*
X606120Y941654D03*
X580720Y941654D03*
D29*
X139700Y927100D02*
X139700Y843280D01*
X268180Y714800D01*
X282800Y714800D01*
X165100Y828940D02*
X165100Y927100D01*
X165100Y828940D02*
X268420Y725620D01*
X274129Y725620D01*
X274143Y725606D01*
X281994Y725606D01*
X282800Y724800D01*
X215900Y801540D02*
X215900Y927100D01*
X215900Y801540D02*
X272640Y744800D01*
X282800Y744800D01*
X241300Y833700D02*
X241300Y927100D01*
X241300Y833700D02*
X303700Y771300D01*
D30*
X522050Y876300D02*
X522410Y875940D01*
X581860Y700860D02*
X596972Y700860D01*
X581860Y700860D02*
X580800Y699800D01*
X528040Y875940D02*
X522410Y875940D01*
X528040Y875940D02*
X602270Y801710D01*
X602270Y706158D01*
X596972Y700860D01*
D31*
X594360Y708660D03*
D29*
X593220Y709800D02*
X580800Y709800D01*
X593220Y709800D02*
X594360Y708660D01*
D31*
X541020Y876300D03*
D30*
X522410Y879940D02*
X522050Y880300D01*
X532709Y876300D02*
X541020Y876300D01*
X529069Y879940D02*
X522410Y879940D01*
X529069Y879940D02*
X532709Y876300D01*
D29*
X292100Y900820D02*
X292100Y927100D01*
X292100Y900820D02*
X287900Y896620D01*
D32*
X224260Y690740D02*
X199140Y690740D01*
D29*
X224260Y690740D02*
X226060Y692540D01*
X203200Y586486D02*
X201168Y586486D01*
D32*
X203200Y586486D02*
X226686Y586486D01*
D29*
X228600Y588400D01*
D31*
X238760Y680720D03*
D29*
X237880Y680720D02*
X226060Y692540D01*
X237880Y680720D02*
X238760Y680720D01*
D31*
X167640Y657860D03*
D29*
X184540Y657860D01*
D31*
X162560Y764540D03*
D29*
X176920Y764540D01*
D31*
X195580Y568960D03*
D32*
X195580Y578866D01*
X203200Y586486D01*
D31*
X396240Y365760D03*
X391160Y411480D03*
X421640Y411480D03*
D29*
X391160Y411480D02*
X391160Y428380D01*
X421640Y425840D02*
X421640Y411480D01*
X421640Y425840D02*
X419100Y428380D01*
X389500Y372500D02*
X396240Y365760D01*
X389500Y372500D02*
X381000Y372500D01*
D31*
X195580Y370840D03*
D29*
X202320Y377580D02*
X208280Y377580D01*
X202320Y377580D02*
X195580Y370840D01*
D31*
X490220Y431800D03*
X553720Y398780D03*
X568960Y431800D03*
D29*
X490220Y431800D02*
X490220Y437760D01*
X496960Y444500D01*
X539700Y398780D02*
X553720Y398780D01*
X539700Y398780D02*
X539320Y398400D01*
X568960Y431800D02*
X568960Y435220D01*
X559680Y444500D01*
D31*
X462280Y457200D03*
D29*
X459300Y460180D02*
X459300Y473300D01*
X459300Y460180D02*
X462280Y457200D01*
X464300Y459220D02*
X464300Y473300D01*
X464300Y459220D02*
X462280Y457200D01*
D31*
X408940Y457200D03*
D29*
X409300Y457560D01*
X409300Y473300D01*
D31*
X261620Y589280D03*
D29*
X282280Y589280D01*
X282800Y589800D01*
D31*
X261620Y533400D03*
D29*
X273549Y533400D01*
X274143Y533994D01*
X281994Y533994D01*
X282800Y534800D01*
X281994Y675606D02*
X274143Y675606D01*
X281994Y675606D02*
X282800Y674800D01*
X266700Y680720D02*
X238760Y680720D01*
X266700Y680720D02*
X269029Y680720D01*
X274143Y675606D01*
X266700Y680720D02*
X272506Y686526D01*
X272506Y687357D01*
X274949Y689800D01*
X282800Y689800D01*
D31*
X472440Y899160D03*
D29*
X490940Y917660D01*
D30*
X492760Y917660D01*
D29*
X508000Y917660D01*
D31*
X550405Y914349D03*
D30*
X553720Y911035D02*
X553720Y899880D01*
X553720Y911035D02*
X550405Y914349D01*
D31*
X472440Y828040D03*
D29*
X479340Y834940D02*
X487680Y834940D01*
X479340Y834940D02*
X472440Y828040D01*
D31*
X513080Y784860D03*
D29*
X514300Y783640D01*
X514300Y771300D01*
D31*
X342900Y784860D03*
X419100Y784860D03*
D29*
X342900Y784860D02*
X342900Y780551D01*
X343494Y779957D01*
X343494Y772106D01*
X344300Y771300D01*
X419100Y771500D02*
X419100Y784860D01*
X419100Y771500D02*
X419300Y771300D01*
D31*
X594360Y543560D03*
X594360Y614680D03*
X594360Y647700D03*
X594360Y690880D03*
D29*
X593120Y544800D02*
X580800Y544800D01*
X593120Y544800D02*
X594360Y543560D01*
X594240Y614800D02*
X580800Y614800D01*
X594240Y614800D02*
X594360Y614680D01*
X592260Y649800D02*
X580800Y649800D01*
X592260Y649800D02*
X594360Y647700D01*
X590440Y694800D02*
X580800Y694800D01*
X590440Y694800D02*
X594360Y690880D01*
D31*
X421640Y911860D03*
D29*
X417580Y907800D02*
X400800Y907800D01*
X417580Y907800D02*
X421640Y911860D01*
D31*
X508000Y876300D03*
D29*
X399300Y453520D02*
X391160Y445380D01*
X399300Y453520D02*
X399300Y473300D01*
X266700Y900820D02*
X266700Y927100D01*
X266700Y900820D02*
X270900Y896620D01*
D32*
X224400Y609600D02*
X201168Y609600D01*
D29*
X224400Y609600D02*
X227770Y606230D01*
D31*
X370840Y444500D03*
X436880Y444500D03*
X325120Y370840D03*
X287020Y370840D03*
D29*
X228600Y605400D02*
X227770Y606230D01*
X266700Y372500D02*
X268360Y370840D01*
X287020Y370840D01*
X304800Y372500D02*
X306460Y370840D01*
X325120Y370840D01*
X341240Y370840D02*
X342900Y372500D01*
X341240Y370840D02*
X325120Y370840D01*
X370840Y444500D02*
X371720Y445380D01*
X391160Y445380D01*
X419100Y445380D02*
X436000Y445380D01*
X436880Y444500D01*
X429300Y452080D01*
X429300Y473300D01*
D31*
X378460Y457200D03*
D29*
X375106Y464643D02*
X375106Y472494D01*
X374300Y473300D01*
X378460Y461289D02*
X378460Y457200D01*
X378460Y461289D02*
X375106Y464643D01*
D31*
X233680Y617220D03*
D29*
X233680Y612140D01*
X227770Y606230D01*
D31*
X261620Y629920D03*
D29*
X282680Y629920D01*
X282800Y629800D01*
D31*
X261620Y546100D03*
D29*
X273649Y546100D01*
X274143Y545606D01*
X281994Y545606D01*
X282800Y544800D01*
D31*
X261620Y708660D03*
D29*
X273809Y708660D01*
X274143Y708994D01*
X281994Y708994D01*
X282800Y709800D01*
D31*
X266700Y665480D03*
D29*
X267380Y664800D01*
X282800Y664800D01*
D31*
X525780Y784860D03*
D29*
X525780Y780631D01*
X525106Y779957D01*
X525106Y772106D01*
X524300Y771300D01*
D31*
X355600Y784860D03*
D29*
X355600Y780451D01*
X355106Y779957D01*
X355106Y772106D01*
X354300Y771300D01*
D31*
X594360Y528320D03*
X594360Y584200D03*
X596900Y668020D03*
D29*
X592880Y529800D02*
X580800Y529800D01*
X592880Y529800D02*
X594360Y528320D01*
X593760Y584800D02*
X580800Y584800D01*
X593760Y584800D02*
X594360Y584200D01*
X590120Y674800D02*
X580800Y674800D01*
X590120Y674800D02*
X596900Y668020D01*
X588680Y659800D02*
X580800Y659800D01*
X588680Y659800D02*
X596900Y668020D01*
D31*
X459740Y784860D03*
D29*
X459300Y784420D02*
X459300Y771300D01*
X459300Y784420D02*
X459740Y784860D01*
X419300Y473300D02*
X419100Y473100D01*
X419100Y445380D01*
D31*
X500380Y843280D03*
D30*
X507640Y861890D02*
X508000Y862250D01*
X500380Y849131D02*
X500380Y843280D01*
X507640Y856391D02*
X507640Y861890D01*
X507640Y856391D02*
X500380Y849131D01*
D31*
X261620Y640080D03*
D29*
X266900Y634800D01*
X282800Y634800D01*
D31*
X528320Y853440D03*
D30*
X522050Y859710D02*
X522050Y868300D01*
X522050Y859710D02*
X528320Y853440D01*
D31*
X365760Y459740D03*
D29*
X369300Y463280D01*
X369300Y473300D01*
D30*
X522156Y872194D02*
X522050Y872300D01*
X522156Y872194D02*
X526757Y872194D01*
X591094Y742243D02*
X589457Y740606D01*
X581606Y740606D01*
X580800Y739800D01*
X591094Y807857D02*
X526757Y872194D01*
X591094Y807857D02*
X591094Y742243D01*
X516000Y807451D02*
X516000Y862250D01*
X516000Y807451D02*
X543494Y779957D01*
X543494Y772106D01*
X544300Y771300D01*
D29*
X102251Y369180D02*
X88392Y383039D01*
X102251Y369180D02*
X182880Y369180D01*
X88392Y383039D02*
X88392Y436363D01*
X96529Y444500D02*
X120650Y444500D01*
X96529Y444500D02*
X88392Y436363D01*
X182880Y369180D02*
X208280Y394580D01*
X306857Y463006D02*
X308494Y464643D01*
X128683Y499364D02*
X112617Y499364D01*
X97536Y484283D01*
X308494Y472494D02*
X309300Y473300D01*
X308494Y472494D02*
X308494Y464643D01*
X306857Y463006D02*
X165041Y463006D01*
X128683Y499364D01*
X97536Y484283D02*
X97536Y468174D01*
X120650Y445060D02*
X120650Y444500D01*
X120650Y445060D02*
X97536Y468174D01*
X266700Y389500D02*
X283600Y406400D01*
X319300Y406400D01*
X319300Y473300D01*
X237100Y419100D02*
X266700Y389500D01*
X237100Y419100D02*
X165100Y419100D01*
X152400Y431800D01*
X152400Y469900D01*
X127000Y495300D01*
X114300Y495300D01*
X101600Y482600D01*
X101600Y469900D01*
X114300Y457200D01*
X120650Y457200D01*
X317500Y389500D02*
X329300Y401300D01*
X317500Y389500D02*
X304800Y389500D01*
X329300Y401300D02*
X329300Y473300D01*
D31*
X289560Y393700D03*
D29*
X293760Y389500D02*
X304800Y389500D01*
X293760Y389500D02*
X289560Y393700D01*
X349300Y421200D02*
X349300Y473300D01*
X349300Y421200D02*
X381000Y389500D01*
X347862Y356362D01*
X238760Y356362D01*
X152400Y379222D02*
X101600Y379222D01*
X101600Y419100D01*
X114300Y431800D01*
X120650Y431800D01*
X228600Y366522D02*
X238760Y356362D01*
X228600Y366522D02*
X228600Y393700D01*
X215900Y406400D01*
X179578Y406400D01*
X152400Y379222D01*
X339300Y393100D02*
X339300Y473300D01*
X339300Y393100D02*
X342900Y389500D01*
D31*
X347980Y403860D03*
D29*
X347980Y394580D01*
X342900Y389500D01*
D30*
X484268Y883940D02*
X493590Y883940D01*
X493950Y884300D01*
X484248Y883920D02*
X445220Y883920D01*
X440140Y878840D01*
X484248Y883920D02*
X484268Y883940D01*
X476360Y880300D02*
X440140Y844080D01*
X440140Y838200D01*
X476360Y880300D02*
X493950Y880300D01*
X492760Y897590D02*
X492760Y906060D01*
X492760Y897590D02*
X500000Y890350D01*
D29*
X427500Y877800D02*
X400800Y877800D01*
X427500Y877800D02*
X428540Y878840D01*
X428140Y837800D02*
X400800Y837800D01*
X428140Y837800D02*
X428540Y838200D01*
D31*
X508000Y835660D03*
D30*
X511640Y861890D02*
X512000Y862250D01*
X511640Y861890D02*
X511640Y839300D01*
X508000Y835660D01*
D31*
X264160Y741680D03*
D29*
X271040Y734800D01*
X282800Y734800D01*
D31*
X502920Y459740D03*
D29*
X504300Y461120D02*
X504300Y473300D01*
X504300Y461120D02*
X502920Y459740D01*
D32*
X201540Y633086D02*
X201540Y657860D01*
D29*
X201540Y633086D02*
X201168Y632714D01*
D32*
X199140Y759320D02*
X193920Y764540D01*
X199140Y759320D02*
X199140Y736740D01*
X111760Y670734D02*
X111760Y546100D01*
X111760Y670734D02*
X111760Y762000D01*
X134620Y784860D01*
X173600Y784860D01*
X193920Y764540D01*
X188666Y670734D02*
X111760Y670734D01*
X188666Y670734D02*
X201540Y657860D01*
D29*
X457200Y381000D02*
X469900Y381000D01*
X474300Y385400D01*
X474300Y473300D01*
D30*
X522050Y884300D02*
X549740Y884300D01*
X552810Y887370D01*
X553720Y888280D01*
X508000Y904240D02*
X508000Y906060D01*
X508000Y904240D02*
X508000Y890350D01*
X504000Y862250D02*
X504000Y857780D01*
X492760Y846540D01*
X487680Y846540D01*
D32*
X221860Y713740D02*
X199140Y713740D01*
D29*
X221860Y713740D02*
X226060Y709540D01*
D31*
X226060Y723900D03*
D33*
X226060Y709540D01*
D31*
X464820Y845820D03*
X541020Y922020D03*
D29*
X486960Y845820D02*
X464820Y845820D01*
X486960Y845820D02*
X487680Y846540D01*
X541020Y899160D02*
X541020Y922020D01*
X541020Y899160D02*
X552810Y887370D01*
X541020Y922020D02*
X525780Y922020D01*
D30*
X508000Y904240D01*
D29*
X517550Y414630D02*
X517320Y414400D01*
X519300Y449840D02*
X519300Y473300D01*
X519300Y449840D02*
X513960Y444500D01*
X513960Y418220D01*
X517550Y414630D01*
X529300Y457880D02*
X529300Y473300D01*
X529300Y457880D02*
X542680Y444500D01*
X542680Y417760D01*
X539320Y414400D01*
D31*
X479285Y873747D03*
D30*
X493590Y875940D02*
X493950Y876300D01*
X493590Y875940D02*
X481478Y875940D01*
X479285Y873747D01*
D31*
X479273Y864426D03*
D30*
X487147Y872300D01*
X493950Y872300D01*
M02*
