G04 EAGLE Gerber RS-274X export*
G75*
%MOMM*%
%FSLAX34Y34*%
%LPD*%
%INBottom Side*%
%IPPOS*%
%AMOC8*
5,1,8,0,0,1.08239X$1,22.5*%
G01*
%ADD10C,1.879600*%
%ADD11C,1.056400*%
%ADD12C,0.756400*%
%ADD13C,0.254000*%
%ADD14C,0.609600*%
%ADD15C,0.203200*%


D10*
X292100Y927100D03*
X266700Y927100D03*
X241300Y927100D03*
X215900Y927100D03*
X190500Y927100D03*
X165100Y927100D03*
X139700Y927100D03*
X137160Y546100D03*
X111760Y546100D03*
X431800Y381000D03*
X457200Y381000D03*
D11*
X120650Y444500D03*
X133350Y444500D03*
X120650Y457200D03*
X133350Y457200D03*
X120650Y469900D03*
X133350Y469900D03*
X120650Y431800D03*
X133350Y431800D03*
X120650Y419100D03*
X133350Y419100D03*
D10*
X606120Y941654D03*
X580720Y941654D03*
D12*
X594360Y708660D03*
X541020Y876300D03*
D13*
X596900Y820420D01*
X596900Y711200D01*
X594360Y708660D01*
D12*
X238760Y680720D03*
X167640Y657860D03*
X162560Y764540D03*
X195580Y568960D03*
X396240Y365760D03*
X391160Y411480D03*
X421640Y411480D03*
X195580Y370840D03*
X490220Y431800D03*
X553720Y398780D03*
X568960Y431800D03*
X462280Y457200D03*
X408940Y457200D03*
X261620Y589280D03*
X261620Y533400D03*
X472440Y899160D03*
X550405Y914349D03*
X472440Y828040D03*
X513080Y784860D03*
X342900Y784860D03*
X419100Y784860D03*
X594360Y543560D03*
X594360Y614680D03*
X594360Y647700D03*
X594360Y690880D03*
X421640Y911860D03*
X508000Y876300D03*
X370840Y444500D03*
X436880Y444500D03*
X325120Y370840D03*
X287020Y370840D03*
X378460Y457200D03*
X233680Y617220D03*
X261620Y629920D03*
X261620Y546100D03*
X261620Y708660D03*
X266700Y665480D03*
X525780Y784860D03*
X355600Y784860D03*
X594360Y528320D03*
X594360Y584200D03*
X596900Y668020D03*
X459740Y784860D03*
X500380Y843280D03*
X261620Y640080D03*
D13*
X249964Y736784D02*
X261436Y748256D01*
X499520Y843280D02*
X500380Y843280D01*
X249964Y736784D02*
X249964Y651736D01*
X261620Y640080D01*
X404496Y748256D02*
X499520Y843280D01*
X404496Y748256D02*
X261436Y748256D01*
D12*
X528320Y853440D03*
X365760Y459740D03*
D13*
X543560Y838200D02*
X528320Y853440D01*
X543560Y838200D02*
X543560Y637540D01*
X365760Y459740D01*
D12*
X289560Y393700D03*
D13*
X146050Y393700D01*
X120650Y419100D01*
D12*
X347980Y403860D03*
D13*
X186690Y403860D01*
X141934Y473456D02*
X136906Y478484D01*
X129794Y478484D01*
X141934Y448616D02*
X186690Y403860D01*
X141934Y448616D02*
X141934Y473456D01*
X121210Y469900D02*
X120650Y469900D01*
X121210Y469900D02*
X129794Y478484D01*
D12*
X508000Y835660D03*
X264160Y741680D03*
D13*
X407260Y741680D01*
X490220Y817880D02*
X508000Y835660D01*
X490220Y817880D02*
X483460Y817880D01*
X407260Y741680D01*
D12*
X502920Y459740D03*
D13*
X474980Y431800D01*
X259940Y431800D01*
X180340Y511400D01*
X180340Y916940D02*
X190500Y927100D01*
X180340Y916940D02*
X180340Y511400D01*
D12*
X226060Y723900D03*
D14*
X360344Y943008D02*
X376256Y943008D01*
X377692Y941572D01*
X360344Y943008D02*
X226060Y808724D01*
X226060Y723900D01*
X377692Y941572D02*
X454660Y941572D01*
X521468Y941572D01*
X541020Y922020D01*
X454660Y941572D02*
X454660Y855980D01*
X464820Y845820D01*
D12*
X464820Y845820D03*
X541020Y922020D03*
X479285Y873747D03*
D15*
X506029Y869330D02*
X515635Y869330D01*
X501612Y873747D02*
X479285Y873747D01*
X501612Y873747D02*
X506029Y869330D01*
X564756Y925690D02*
X580720Y941654D01*
X564756Y925690D02*
X564756Y918451D01*
X515635Y869330D01*
D12*
X479273Y864426D03*
D15*
X518795Y864426D01*
X547088Y882622D02*
X606120Y941654D01*
X547088Y882622D02*
X536992Y882622D01*
X518795Y864426D01*
M02*
