M48
;GenerationSoftware,Autodesk,EAGLE,9.2.1*%
;CreationDate,2018-12-12T23:31:00Z*%
FMAT,2
ICI,OFF
METRIC,TZ,000.000
T4C0.350
T3C0.650
T2C1.016
T1C1.200
%
G90
M71
T1
X36830Y85380
X36830Y92380
T2
X58072Y94165
X60612Y94165
X45720Y38100
X43180Y38100
X11176Y54610
X13716Y54610
X13970Y92710
X16510Y92710
X19050Y92710
X21590Y92710
X24130Y92710
X26670Y92710
X29210Y92710
T3
X13335Y41910
X12065Y41910
X13335Y43180
X12065Y43180
X13335Y46990
X12065Y46990
X13335Y45720
X12065Y45720
X13335Y44450
X12065Y44450
T4
X59436Y64770
X59436Y69088
X42164Y91186
X50800Y87630
X37084Y44450
X43688Y44450
X32512Y37084
X28702Y37084
X37846Y45720
X23368Y61722
X26162Y62992
X26162Y54610
X26162Y70866
X26670Y66548
X52578Y78486
X35560Y78486
X59436Y52832
X59436Y70866
X59690Y66802
X45974Y78486
X50038Y84328
X26162Y64008
X52832Y85344
X36576Y45974
X28956Y39370
X34798Y40386
X50800Y83566
X26416Y74168
X50292Y45974
X22606Y72390
X46482Y84582
X54102Y92202
X47929Y87375
X47927Y86443
X59436Y61468
X59436Y54356
X41910Y78486
X34290Y78486
X51308Y78486
X47244Y82804
X55041Y91435
X47244Y89916
X26162Y53340
X26162Y58928
X40894Y45720
X46228Y45720
X56896Y43180
X55372Y39878
X49022Y43180
X19558Y37084
X42164Y41148
X39116Y41148
X39624Y36576
X19558Y56896
X16256Y76454
X16764Y65786
X23876Y68072
X54102Y87630
X59436Y58420
M30