G04 EAGLE Gerber RS-274X export*
G75*
%MOMM*%
%FSLAX34Y34*%
%LPD*%
%INMidlayer1*%
%IPPOS*%
%AMOC8*
5,1,8,0,0,1.08239X$1,22.5*%
G01*
%ADD10C,1.879600*%
%ADD11C,1.056400*%
%ADD12C,0.756400*%

G36*
X579218Y351803D02*
X579218Y351803D01*
X579317Y351806D01*
X579375Y351823D01*
X579436Y351831D01*
X579528Y351867D01*
X579623Y351895D01*
X579675Y351925D01*
X579731Y351948D01*
X579811Y352006D01*
X579897Y352056D01*
X579972Y352122D01*
X579989Y352134D01*
X579996Y352144D01*
X580018Y352163D01*
X605418Y377563D01*
X605478Y377641D01*
X605546Y377713D01*
X605571Y377758D01*
X605576Y377764D01*
X605580Y377772D01*
X605612Y377814D01*
X605652Y377905D01*
X605700Y377991D01*
X605715Y378050D01*
X605739Y378106D01*
X605754Y378204D01*
X605779Y378299D01*
X605785Y378399D01*
X605789Y378420D01*
X605787Y378432D01*
X605789Y378460D01*
X605789Y942340D01*
X605777Y942438D01*
X605774Y942537D01*
X605757Y942595D01*
X605749Y942656D01*
X605713Y942748D01*
X605685Y942843D01*
X605655Y942895D01*
X605632Y942951D01*
X605574Y943031D01*
X605524Y943117D01*
X605458Y943192D01*
X605446Y943209D01*
X605436Y943216D01*
X605418Y943238D01*
X595258Y953398D01*
X595179Y953458D01*
X595107Y953526D01*
X595054Y953555D01*
X595006Y953592D01*
X594915Y953632D01*
X594829Y953680D01*
X594770Y953695D01*
X594714Y953719D01*
X594616Y953734D01*
X594521Y953759D01*
X594421Y953765D01*
X594400Y953769D01*
X594388Y953767D01*
X594360Y953769D01*
X91440Y953769D01*
X91342Y953757D01*
X91243Y953754D01*
X91185Y953737D01*
X91124Y953729D01*
X91032Y953693D01*
X90937Y953665D01*
X90885Y953635D01*
X90829Y953612D01*
X90749Y953554D01*
X90663Y953504D01*
X90588Y953438D01*
X90571Y953426D01*
X90564Y953416D01*
X90543Y953398D01*
X85463Y948318D01*
X85402Y948239D01*
X85334Y948167D01*
X85305Y948114D01*
X85268Y948066D01*
X85228Y947975D01*
X85180Y947889D01*
X85165Y947830D01*
X85141Y947774D01*
X85126Y947676D01*
X85101Y947581D01*
X85095Y947481D01*
X85091Y947460D01*
X85093Y947448D01*
X85091Y947420D01*
X85091Y363220D01*
X85103Y363122D01*
X85106Y363023D01*
X85119Y362978D01*
X85119Y362977D01*
X85122Y362968D01*
X85123Y362965D01*
X85131Y362904D01*
X85167Y362812D01*
X85195Y362717D01*
X85214Y362685D01*
X85217Y362675D01*
X85229Y362656D01*
X85248Y362609D01*
X85306Y362529D01*
X85356Y362443D01*
X85383Y362413D01*
X85387Y362406D01*
X85398Y362396D01*
X85422Y362368D01*
X85434Y362351D01*
X85444Y362344D01*
X85463Y362323D01*
X95623Y352163D01*
X95701Y352102D01*
X95773Y352034D01*
X95826Y352005D01*
X95874Y351968D01*
X95965Y351928D01*
X96051Y351880D01*
X96110Y351865D01*
X96166Y351841D01*
X96264Y351826D01*
X96359Y351801D01*
X96459Y351795D01*
X96480Y351791D01*
X96492Y351793D01*
X96520Y351791D01*
X579120Y351791D01*
X579218Y351803D01*
G37*
%LPC*%
G36*
X119296Y412293D02*
X119296Y412293D01*
X116794Y413330D01*
X114880Y415244D01*
X113843Y417746D01*
X113843Y420454D01*
X114880Y422956D01*
X116476Y424553D01*
X116549Y424647D01*
X116628Y424736D01*
X116646Y424772D01*
X116671Y424804D01*
X116719Y424913D01*
X116773Y425019D01*
X116782Y425058D01*
X116798Y425096D01*
X116816Y425213D01*
X116842Y425329D01*
X116841Y425370D01*
X116847Y425410D01*
X116836Y425528D01*
X116833Y425647D01*
X116821Y425686D01*
X116818Y425726D01*
X116777Y425838D01*
X116744Y425953D01*
X116724Y425988D01*
X116710Y426026D01*
X116643Y426124D01*
X116583Y426227D01*
X116543Y426272D01*
X116531Y426289D01*
X116516Y426302D01*
X116476Y426348D01*
X114880Y427944D01*
X113843Y430446D01*
X113843Y433154D01*
X114880Y435656D01*
X116476Y437252D01*
X116549Y437347D01*
X116628Y437436D01*
X116646Y437472D01*
X116671Y437504D01*
X116719Y437613D01*
X116773Y437719D01*
X116782Y437758D01*
X116798Y437796D01*
X116816Y437913D01*
X116842Y438029D01*
X116841Y438070D01*
X116847Y438110D01*
X116836Y438228D01*
X116833Y438347D01*
X116821Y438386D01*
X116818Y438426D01*
X116777Y438539D01*
X116744Y438653D01*
X116724Y438687D01*
X116710Y438726D01*
X116643Y438824D01*
X116583Y438927D01*
X116543Y438972D01*
X116531Y438989D01*
X116516Y439002D01*
X116476Y439047D01*
X114880Y440644D01*
X113843Y443146D01*
X113843Y445854D01*
X114880Y448356D01*
X116476Y449952D01*
X116549Y450047D01*
X116628Y450136D01*
X116646Y450172D01*
X116671Y450204D01*
X116719Y450313D01*
X116773Y450419D01*
X116782Y450458D01*
X116798Y450496D01*
X116816Y450613D01*
X116842Y450729D01*
X116841Y450770D01*
X116847Y450810D01*
X116836Y450928D01*
X116833Y451047D01*
X116821Y451086D01*
X116818Y451126D01*
X116777Y451239D01*
X116744Y451353D01*
X116724Y451387D01*
X116710Y451426D01*
X116643Y451524D01*
X116583Y451627D01*
X116543Y451672D01*
X116531Y451689D01*
X116516Y451702D01*
X116476Y451747D01*
X114880Y453344D01*
X113843Y455846D01*
X113843Y458554D01*
X114880Y461056D01*
X116476Y462653D01*
X116549Y462747D01*
X116628Y462836D01*
X116646Y462872D01*
X116671Y462904D01*
X116719Y463013D01*
X116773Y463119D01*
X116782Y463158D01*
X116798Y463196D01*
X116816Y463313D01*
X116842Y463429D01*
X116841Y463470D01*
X116847Y463510D01*
X116836Y463628D01*
X116833Y463747D01*
X116821Y463786D01*
X116818Y463826D01*
X116777Y463938D01*
X116744Y464053D01*
X116724Y464088D01*
X116710Y464126D01*
X116643Y464224D01*
X116583Y464327D01*
X116543Y464372D01*
X116531Y464389D01*
X116516Y464402D01*
X116476Y464448D01*
X114880Y466044D01*
X113843Y468546D01*
X113843Y471254D01*
X114880Y473756D01*
X116794Y475670D01*
X119296Y476707D01*
X122004Y476707D01*
X124506Y475670D01*
X126102Y474074D01*
X126197Y474001D01*
X126286Y473922D01*
X126322Y473904D01*
X126354Y473879D01*
X126463Y473831D01*
X126569Y473777D01*
X126608Y473768D01*
X126646Y473752D01*
X126763Y473734D01*
X126879Y473708D01*
X126920Y473709D01*
X126960Y473703D01*
X127078Y473714D01*
X127197Y473717D01*
X127236Y473729D01*
X127276Y473732D01*
X127389Y473773D01*
X127503Y473806D01*
X127537Y473826D01*
X127576Y473840D01*
X127674Y473907D01*
X127777Y473967D01*
X127822Y474007D01*
X127839Y474019D01*
X127852Y474034D01*
X127897Y474074D01*
X129494Y475670D01*
X131996Y476707D01*
X134704Y476707D01*
X137206Y475670D01*
X139120Y473756D01*
X140157Y471254D01*
X140157Y468546D01*
X139120Y466044D01*
X137524Y464448D01*
X137451Y464353D01*
X137372Y464264D01*
X137354Y464228D01*
X137329Y464196D01*
X137281Y464087D01*
X137227Y463981D01*
X137218Y463942D01*
X137202Y463904D01*
X137184Y463787D01*
X137158Y463671D01*
X137159Y463630D01*
X137153Y463590D01*
X137164Y463472D01*
X137167Y463353D01*
X137179Y463314D01*
X137182Y463274D01*
X137223Y463161D01*
X137256Y463047D01*
X137276Y463013D01*
X137290Y462974D01*
X137357Y462876D01*
X137417Y462773D01*
X137457Y462728D01*
X137469Y462711D01*
X137484Y462698D01*
X137524Y462653D01*
X139120Y461056D01*
X140157Y458554D01*
X140157Y455846D01*
X139120Y453344D01*
X138241Y452465D01*
X138188Y452397D01*
X138128Y452336D01*
X138091Y452272D01*
X138046Y452213D01*
X138012Y452135D01*
X137969Y452061D01*
X137949Y451989D01*
X137920Y451922D01*
X137906Y451837D01*
X137883Y451754D01*
X137881Y451681D01*
X137870Y451607D01*
X137878Y451522D01*
X137876Y451436D01*
X137892Y451368D01*
X137892Y451365D01*
X137893Y451362D01*
X137900Y451291D01*
X137929Y451210D01*
X137948Y451127D01*
X137977Y451071D01*
X137980Y451059D01*
X137986Y451049D01*
X138007Y450992D01*
X138055Y450921D01*
X138095Y450845D01*
X138131Y450805D01*
X138142Y450786D01*
X138164Y450761D01*
X138186Y450728D01*
X138215Y450703D01*
X138248Y450665D01*
X139426Y449487D01*
X140282Y448205D01*
X140872Y446782D01*
X141003Y446124D01*
X133705Y446124D01*
X133587Y446109D01*
X133468Y446102D01*
X133430Y446089D01*
X133390Y446084D01*
X133279Y446041D01*
X133166Y446004D01*
X133132Y445982D01*
X133094Y445967D01*
X132998Y445898D01*
X132897Y445834D01*
X132869Y445804D01*
X132837Y445781D01*
X132761Y445689D01*
X132679Y445602D01*
X132660Y445567D01*
X132634Y445536D01*
X132583Y445428D01*
X132526Y445324D01*
X132524Y445316D01*
X132456Y445294D01*
X132421Y445272D01*
X132384Y445257D01*
X132287Y445187D01*
X132187Y445124D01*
X132159Y445094D01*
X132126Y445070D01*
X132050Y444979D01*
X131969Y444892D01*
X131949Y444857D01*
X131924Y444825D01*
X131873Y444718D01*
X131815Y444613D01*
X131805Y444574D01*
X131788Y444538D01*
X131766Y444421D01*
X131736Y444305D01*
X131732Y444245D01*
X131728Y444225D01*
X131730Y444205D01*
X131726Y444145D01*
X131726Y432155D01*
X131741Y432037D01*
X131748Y431918D01*
X131760Y431880D01*
X131766Y431840D01*
X131809Y431729D01*
X131846Y431616D01*
X131868Y431582D01*
X131883Y431544D01*
X131952Y431448D01*
X132016Y431347D01*
X132046Y431319D01*
X132069Y431287D01*
X132161Y431211D01*
X132248Y431129D01*
X132283Y431110D01*
X132314Y431084D01*
X132422Y431033D01*
X132526Y430976D01*
X132534Y430974D01*
X132556Y430906D01*
X132578Y430871D01*
X132593Y430834D01*
X132663Y430737D01*
X132726Y430637D01*
X132756Y430609D01*
X132780Y430576D01*
X132871Y430500D01*
X132958Y430419D01*
X132993Y430399D01*
X133025Y430374D01*
X133132Y430323D01*
X133237Y430265D01*
X133276Y430255D01*
X133312Y430238D01*
X133429Y430216D01*
X133545Y430186D01*
X133605Y430182D01*
X133625Y430178D01*
X133645Y430180D01*
X133705Y430176D01*
X141003Y430176D01*
X140872Y429518D01*
X140282Y428095D01*
X139426Y426813D01*
X138248Y425635D01*
X138232Y425614D01*
X138196Y425583D01*
X138147Y425512D01*
X138089Y425447D01*
X138064Y425397D01*
X138053Y425384D01*
X138047Y425369D01*
X138014Y425323D01*
X137984Y425241D01*
X137944Y425164D01*
X137930Y425099D01*
X137927Y425092D01*
X137926Y425086D01*
X137903Y425025D01*
X137894Y424938D01*
X137875Y424853D01*
X137877Y424781D01*
X137869Y424708D01*
X137882Y424622D01*
X137884Y424536D01*
X137905Y424466D01*
X137915Y424394D01*
X137949Y424314D01*
X137973Y424230D01*
X138010Y424167D01*
X138038Y424100D01*
X138090Y424031D01*
X138134Y423956D01*
X138222Y423856D01*
X138230Y423847D01*
X138234Y423843D01*
X138241Y423835D01*
X139120Y422956D01*
X140157Y420454D01*
X140157Y417746D01*
X139120Y415244D01*
X137206Y413330D01*
X134704Y412293D01*
X131996Y412293D01*
X129494Y413330D01*
X127897Y414926D01*
X127803Y414999D01*
X127803Y415000D01*
X127792Y415010D01*
X127790Y415011D01*
X127714Y415078D01*
X127678Y415096D01*
X127646Y415121D01*
X127537Y415169D01*
X127431Y415223D01*
X127392Y415232D01*
X127354Y415248D01*
X127237Y415266D01*
X127121Y415292D01*
X127080Y415291D01*
X127040Y415297D01*
X126922Y415286D01*
X126803Y415283D01*
X126764Y415271D01*
X126724Y415268D01*
X126612Y415227D01*
X126497Y415194D01*
X126462Y415174D01*
X126424Y415160D01*
X126326Y415093D01*
X126223Y415033D01*
X126178Y414993D01*
X126161Y414981D01*
X126148Y414966D01*
X126102Y414926D01*
X124506Y413330D01*
X122004Y412293D01*
X119296Y412293D01*
G37*
%LPD*%
%LPC*%
G36*
X266152Y691161D02*
X266152Y691161D01*
X264202Y691969D01*
X262709Y693462D01*
X261901Y695412D01*
X261901Y697766D01*
X261886Y697884D01*
X261879Y698003D01*
X261866Y698041D01*
X261861Y698082D01*
X261818Y698192D01*
X261781Y698305D01*
X261759Y698340D01*
X261744Y698377D01*
X261675Y698473D01*
X261611Y698574D01*
X261581Y698602D01*
X261558Y698635D01*
X261466Y698711D01*
X261379Y698792D01*
X261344Y698812D01*
X261313Y698837D01*
X261205Y698888D01*
X261101Y698946D01*
X261061Y698956D01*
X261025Y698973D01*
X260908Y698995D01*
X260793Y699025D01*
X260733Y699029D01*
X260713Y699033D01*
X260692Y699031D01*
X260632Y699035D01*
X258278Y699035D01*
X256328Y699843D01*
X254835Y701336D01*
X254027Y703286D01*
X254027Y705398D01*
X254835Y707348D01*
X256328Y708841D01*
X258278Y709649D01*
X260124Y709649D01*
X260242Y709664D01*
X260361Y709671D01*
X260399Y709684D01*
X260440Y709689D01*
X260550Y709732D01*
X260663Y709769D01*
X260698Y709791D01*
X260735Y709806D01*
X260831Y709875D01*
X260932Y709939D01*
X260960Y709969D01*
X260993Y709992D01*
X261069Y710084D01*
X261150Y710171D01*
X261170Y710206D01*
X261195Y710237D01*
X261246Y710345D01*
X261304Y710449D01*
X261314Y710489D01*
X261331Y710525D01*
X261353Y710642D01*
X261383Y710757D01*
X261387Y710817D01*
X261391Y710837D01*
X261389Y710858D01*
X261393Y710918D01*
X261393Y710986D01*
X261608Y711504D01*
X261621Y711552D01*
X261642Y711597D01*
X261663Y711705D01*
X261692Y711811D01*
X261693Y711861D01*
X261702Y711910D01*
X261695Y712019D01*
X261697Y712129D01*
X261686Y712177D01*
X261682Y712227D01*
X261649Y712331D01*
X261623Y712438D01*
X261600Y712482D01*
X261584Y712529D01*
X261526Y712622D01*
X261474Y712719D01*
X261441Y712756D01*
X261414Y712798D01*
X261334Y712874D01*
X261260Y712955D01*
X261219Y712982D01*
X261183Y713016D01*
X261086Y713069D01*
X260995Y713129D01*
X260948Y713146D01*
X260904Y713170D01*
X260798Y713197D01*
X260694Y713233D01*
X260644Y713237D01*
X260596Y713249D01*
X260436Y713259D01*
X259548Y713259D01*
X257598Y714067D01*
X256105Y715560D01*
X255297Y717510D01*
X255297Y719622D01*
X256105Y721572D01*
X257598Y723065D01*
X259548Y723873D01*
X261495Y723873D01*
X261544Y723879D01*
X261594Y723877D01*
X261701Y723899D01*
X261811Y723913D01*
X261857Y723931D01*
X261905Y723941D01*
X262004Y723989D01*
X262106Y724030D01*
X262146Y724059D01*
X262191Y724081D01*
X262275Y724152D01*
X262364Y724216D01*
X262395Y724255D01*
X262433Y724287D01*
X262496Y724377D01*
X262566Y724461D01*
X262588Y724506D01*
X262616Y724547D01*
X262655Y724650D01*
X262702Y724749D01*
X262711Y724798D01*
X262729Y724844D01*
X262741Y724954D01*
X262762Y725061D01*
X262759Y725111D01*
X262764Y725160D01*
X262749Y725269D01*
X262742Y725379D01*
X262727Y725426D01*
X262720Y725475D01*
X262668Y725628D01*
X262663Y725638D01*
X262663Y727750D01*
X263404Y729538D01*
X263417Y729586D01*
X263438Y729631D01*
X263459Y729739D01*
X263488Y729845D01*
X263489Y729895D01*
X263498Y729944D01*
X263491Y730053D01*
X263493Y730163D01*
X263482Y730211D01*
X263478Y730261D01*
X263445Y730365D01*
X263419Y730472D01*
X263396Y730516D01*
X263380Y730563D01*
X263322Y730656D01*
X263270Y730753D01*
X263237Y730790D01*
X263210Y730832D01*
X263130Y730907D01*
X263056Y730989D01*
X263015Y731016D01*
X262979Y731050D01*
X262883Y731103D01*
X262791Y731163D01*
X262744Y731180D01*
X262700Y731204D01*
X262594Y731231D01*
X262490Y731267D01*
X262440Y731271D01*
X262392Y731283D01*
X262232Y731293D01*
X261326Y731293D01*
X259376Y732101D01*
X257883Y733594D01*
X257075Y735544D01*
X257075Y737656D01*
X257883Y739606D01*
X259376Y741099D01*
X261326Y741907D01*
X262918Y741907D01*
X263036Y741922D01*
X263155Y741929D01*
X263193Y741942D01*
X263234Y741947D01*
X263344Y741990D01*
X263457Y742027D01*
X263492Y742049D01*
X263529Y742064D01*
X263625Y742133D01*
X263726Y742197D01*
X263754Y742227D01*
X263787Y742250D01*
X263863Y742342D01*
X263944Y742429D01*
X263964Y742464D01*
X263989Y742495D01*
X264040Y742603D01*
X264098Y742707D01*
X264108Y742747D01*
X264125Y742783D01*
X264147Y742900D01*
X264177Y743015D01*
X264181Y743075D01*
X264185Y743095D01*
X264183Y743116D01*
X264187Y743176D01*
X264187Y744514D01*
X264995Y746464D01*
X266488Y747957D01*
X268438Y748765D01*
X270550Y748765D01*
X272500Y747957D01*
X273993Y746464D01*
X274801Y744514D01*
X274801Y742402D01*
X273993Y740452D01*
X272500Y738959D01*
X270550Y738151D01*
X268958Y738151D01*
X268840Y738136D01*
X268721Y738129D01*
X268683Y738116D01*
X268642Y738111D01*
X268532Y738068D01*
X268419Y738031D01*
X268384Y738009D01*
X268347Y737994D01*
X268251Y737925D01*
X268150Y737861D01*
X268122Y737831D01*
X268089Y737808D01*
X268013Y737716D01*
X267932Y737629D01*
X267912Y737594D01*
X267887Y737563D01*
X267836Y737455D01*
X267778Y737351D01*
X267768Y737311D01*
X267751Y737275D01*
X267729Y737158D01*
X267699Y737043D01*
X267695Y736983D01*
X267691Y736963D01*
X267693Y736942D01*
X267689Y736882D01*
X267689Y735544D01*
X266948Y733756D01*
X266935Y733708D01*
X266914Y733663D01*
X266893Y733555D01*
X266864Y733449D01*
X266863Y733399D01*
X266854Y733350D01*
X266861Y733241D01*
X266859Y733131D01*
X266870Y733083D01*
X266874Y733033D01*
X266907Y732929D01*
X266933Y732822D01*
X266956Y732778D01*
X266972Y732731D01*
X267030Y732638D01*
X267082Y732541D01*
X267115Y732504D01*
X267142Y732462D01*
X267222Y732387D01*
X267296Y732305D01*
X267337Y732278D01*
X267373Y732244D01*
X267469Y732191D01*
X267561Y732131D01*
X267608Y732114D01*
X267652Y732090D01*
X267758Y732063D01*
X267862Y732027D01*
X267912Y732023D01*
X267960Y732011D01*
X268120Y732001D01*
X269026Y732001D01*
X270976Y731193D01*
X272469Y729700D01*
X273277Y727750D01*
X273277Y725638D01*
X272469Y723688D01*
X270976Y722195D01*
X269026Y721387D01*
X267079Y721387D01*
X267030Y721381D01*
X266980Y721383D01*
X266873Y721361D01*
X266763Y721347D01*
X266717Y721329D01*
X266669Y721319D01*
X266570Y721271D01*
X266468Y721230D01*
X266428Y721201D01*
X266383Y721179D01*
X266299Y721108D01*
X266210Y721044D01*
X266179Y721005D01*
X266141Y720973D01*
X266078Y720883D01*
X266008Y720799D01*
X265986Y720754D01*
X265958Y720713D01*
X265919Y720610D01*
X265872Y720511D01*
X265863Y720462D01*
X265845Y720416D01*
X265833Y720306D01*
X265812Y720199D01*
X265815Y720149D01*
X265810Y720100D01*
X265825Y719991D01*
X265832Y719881D01*
X265847Y719834D01*
X265854Y719785D01*
X265906Y719632D01*
X265911Y719622D01*
X265911Y717510D01*
X265696Y716992D01*
X265683Y716944D01*
X265662Y716899D01*
X265641Y716791D01*
X265612Y716685D01*
X265611Y716635D01*
X265602Y716586D01*
X265609Y716477D01*
X265607Y716367D01*
X265618Y716319D01*
X265622Y716269D01*
X265655Y716165D01*
X265681Y716058D01*
X265704Y716014D01*
X265720Y715967D01*
X265778Y715874D01*
X265830Y715777D01*
X265863Y715740D01*
X265890Y715698D01*
X265970Y715622D01*
X266044Y715541D01*
X266085Y715514D01*
X266121Y715480D01*
X266218Y715427D01*
X266309Y715367D01*
X266356Y715350D01*
X266400Y715326D01*
X266506Y715299D01*
X266610Y715263D01*
X266660Y715259D01*
X266708Y715247D01*
X266868Y715237D01*
X267756Y715237D01*
X269706Y714429D01*
X271199Y712936D01*
X272007Y710986D01*
X272007Y708874D01*
X271199Y706924D01*
X269706Y705431D01*
X267756Y704623D01*
X265910Y704623D01*
X265792Y704608D01*
X265673Y704601D01*
X265635Y704588D01*
X265594Y704583D01*
X265484Y704540D01*
X265371Y704503D01*
X265336Y704481D01*
X265299Y704466D01*
X265203Y704397D01*
X265102Y704333D01*
X265074Y704303D01*
X265041Y704280D01*
X264965Y704188D01*
X264884Y704101D01*
X264864Y704066D01*
X264839Y704035D01*
X264788Y703927D01*
X264730Y703823D01*
X264720Y703783D01*
X264703Y703747D01*
X264681Y703630D01*
X264651Y703515D01*
X264647Y703455D01*
X264643Y703435D01*
X264645Y703414D01*
X264641Y703354D01*
X264641Y703044D01*
X264656Y702926D01*
X264663Y702807D01*
X264676Y702769D01*
X264681Y702728D01*
X264724Y702618D01*
X264761Y702505D01*
X264783Y702470D01*
X264798Y702433D01*
X264867Y702337D01*
X264931Y702236D01*
X264961Y702208D01*
X264984Y702175D01*
X265076Y702099D01*
X265163Y702018D01*
X265198Y701998D01*
X265229Y701973D01*
X265337Y701922D01*
X265441Y701864D01*
X265481Y701854D01*
X265517Y701837D01*
X265634Y701815D01*
X265749Y701785D01*
X265809Y701781D01*
X265829Y701777D01*
X265850Y701779D01*
X265910Y701775D01*
X268264Y701775D01*
X270214Y700967D01*
X271707Y699474D01*
X272515Y697524D01*
X272515Y695412D01*
X271707Y693462D01*
X270214Y691969D01*
X268264Y691161D01*
X266152Y691161D01*
G37*
%LPD*%
%LPC*%
G36*
X366096Y842719D02*
X366096Y842719D01*
X362023Y844406D01*
X358906Y847523D01*
X357219Y851596D01*
X357219Y856004D01*
X358906Y860077D01*
X362023Y863194D01*
X366096Y864881D01*
X370504Y864881D01*
X374577Y863194D01*
X377694Y860077D01*
X379381Y856004D01*
X379381Y851596D01*
X377694Y847523D01*
X374577Y844406D01*
X370504Y842719D01*
X366096Y842719D01*
G37*
%LPD*%
%LPC*%
G36*
X366096Y912719D02*
X366096Y912719D01*
X362023Y914406D01*
X358906Y917523D01*
X357219Y921596D01*
X357219Y926004D01*
X358906Y930077D01*
X362023Y933194D01*
X366096Y934881D01*
X370504Y934881D01*
X374577Y933194D01*
X377694Y930077D01*
X379381Y926004D01*
X379381Y921596D01*
X377694Y917523D01*
X374577Y914406D01*
X370504Y912719D01*
X366096Y912719D01*
G37*
%LPD*%
%LPC*%
G36*
X273163Y915161D02*
X273163Y915161D01*
X269149Y916824D01*
X266076Y919897D01*
X264413Y923911D01*
X264413Y928257D01*
X266076Y932271D01*
X269149Y935344D01*
X273163Y937007D01*
X277509Y937007D01*
X281523Y935344D01*
X284596Y932271D01*
X286259Y928257D01*
X286259Y923911D01*
X284596Y919897D01*
X281523Y916824D01*
X277509Y915161D01*
X273163Y915161D01*
G37*
%LPD*%
%LPC*%
G36*
X108825Y525017D02*
X108825Y525017D01*
X104811Y526680D01*
X101738Y529753D01*
X100075Y533767D01*
X100075Y538113D01*
X101738Y542127D01*
X104811Y545200D01*
X108825Y546863D01*
X113171Y546863D01*
X117185Y545200D01*
X120258Y542127D01*
X121921Y538113D01*
X121921Y533767D01*
X120258Y529753D01*
X117185Y526680D01*
X113171Y525017D01*
X108825Y525017D01*
G37*
%LPD*%
%LPC*%
G36*
X111365Y817371D02*
X111365Y817371D01*
X107351Y819034D01*
X104278Y822107D01*
X102615Y826121D01*
X102615Y830467D01*
X104278Y834481D01*
X107351Y837554D01*
X111365Y839217D01*
X115711Y839217D01*
X119725Y837554D01*
X122798Y834481D01*
X124461Y830467D01*
X124461Y826121D01*
X122798Y822107D01*
X119725Y819034D01*
X115711Y817371D01*
X111365Y817371D01*
G37*
%LPD*%
%LPC*%
G36*
X202805Y820673D02*
X202805Y820673D01*
X198791Y822336D01*
X195718Y825409D01*
X194055Y829423D01*
X194055Y833769D01*
X195718Y837783D01*
X198791Y840856D01*
X202805Y842519D01*
X207151Y842519D01*
X211165Y840856D01*
X214238Y837783D01*
X215901Y833769D01*
X215901Y829423D01*
X214238Y825409D01*
X211165Y822336D01*
X207151Y820673D01*
X202805Y820673D01*
G37*
%LPD*%
%LPC*%
G36*
X202805Y922273D02*
X202805Y922273D01*
X198791Y923936D01*
X195718Y927009D01*
X194055Y931023D01*
X194055Y935369D01*
X195718Y939383D01*
X198791Y942456D01*
X202805Y944119D01*
X207151Y944119D01*
X211165Y942456D01*
X214238Y939383D01*
X215901Y935369D01*
X215901Y931023D01*
X214238Y927009D01*
X211165Y923936D01*
X207151Y922273D01*
X202805Y922273D01*
G37*
%LPD*%
%LPC*%
G36*
X111365Y766571D02*
X111365Y766571D01*
X107351Y768234D01*
X104278Y771307D01*
X102615Y775321D01*
X102615Y779667D01*
X104278Y783681D01*
X107351Y786754D01*
X111365Y788417D01*
X115711Y788417D01*
X119725Y786754D01*
X122798Y783681D01*
X124461Y779667D01*
X124461Y775321D01*
X122798Y771307D01*
X119725Y768234D01*
X115711Y766571D01*
X111365Y766571D01*
G37*
%LPD*%
%LPC*%
G36*
X202805Y896873D02*
X202805Y896873D01*
X198791Y898536D01*
X195718Y901609D01*
X194055Y905623D01*
X194055Y909969D01*
X195718Y913983D01*
X198791Y917056D01*
X202805Y918719D01*
X207151Y918719D01*
X211165Y917056D01*
X214238Y913983D01*
X215901Y909969D01*
X215901Y905623D01*
X214238Y901609D01*
X211165Y898536D01*
X207151Y896873D01*
X202805Y896873D01*
G37*
%LPD*%
%LPC*%
G36*
X111365Y893571D02*
X111365Y893571D01*
X107351Y895234D01*
X104278Y898307D01*
X102615Y902321D01*
X102615Y906667D01*
X104278Y910681D01*
X107351Y913754D01*
X111365Y915417D01*
X115711Y915417D01*
X119725Y913754D01*
X122798Y910681D01*
X124461Y906667D01*
X124461Y902321D01*
X122798Y898307D01*
X119725Y895234D01*
X115711Y893571D01*
X111365Y893571D01*
G37*
%LPD*%
%LPC*%
G36*
X273163Y889761D02*
X273163Y889761D01*
X269149Y891424D01*
X266076Y894497D01*
X264413Y898511D01*
X264413Y902857D01*
X266076Y906871D01*
X269149Y909944D01*
X273163Y911607D01*
X277509Y911607D01*
X281523Y909944D01*
X284596Y906871D01*
X286259Y902857D01*
X286259Y898511D01*
X284596Y894497D01*
X281523Y891424D01*
X277509Y889761D01*
X273163Y889761D01*
G37*
%LPD*%
%LPC*%
G36*
X202805Y871473D02*
X202805Y871473D01*
X198791Y873136D01*
X195718Y876209D01*
X194055Y880223D01*
X194055Y884569D01*
X195718Y888583D01*
X198791Y891656D01*
X202805Y893319D01*
X207151Y893319D01*
X211165Y891656D01*
X214238Y888583D01*
X215901Y884569D01*
X215901Y880223D01*
X214238Y876209D01*
X211165Y873136D01*
X207151Y871473D01*
X202805Y871473D01*
G37*
%LPD*%
%LPC*%
G36*
X111365Y868171D02*
X111365Y868171D01*
X107351Y869834D01*
X104278Y872907D01*
X102615Y876921D01*
X102615Y881267D01*
X104278Y885281D01*
X107351Y888354D01*
X111365Y890017D01*
X115711Y890017D01*
X119725Y888354D01*
X122798Y885281D01*
X124461Y881267D01*
X124461Y876921D01*
X122798Y872907D01*
X119725Y869834D01*
X115711Y868171D01*
X111365Y868171D01*
G37*
%LPD*%
%LPC*%
G36*
X273163Y864361D02*
X273163Y864361D01*
X269149Y866024D01*
X266076Y869097D01*
X264413Y873111D01*
X264413Y877457D01*
X266076Y881471D01*
X269149Y884544D01*
X273163Y886207D01*
X277509Y886207D01*
X281523Y884544D01*
X284596Y881471D01*
X286259Y877457D01*
X286259Y873111D01*
X284596Y869097D01*
X281523Y866024D01*
X277509Y864361D01*
X273163Y864361D01*
G37*
%LPD*%
%LPC*%
G36*
X111365Y791971D02*
X111365Y791971D01*
X107351Y793634D01*
X104278Y796707D01*
X102615Y800721D01*
X102615Y805067D01*
X104278Y809081D01*
X107351Y812154D01*
X111365Y813817D01*
X115711Y813817D01*
X119725Y812154D01*
X122798Y809081D01*
X124461Y805067D01*
X124461Y800721D01*
X122798Y796707D01*
X119725Y793634D01*
X115711Y791971D01*
X111365Y791971D01*
G37*
%LPD*%
%LPC*%
G36*
X202805Y846073D02*
X202805Y846073D01*
X198791Y847736D01*
X195718Y850809D01*
X194055Y854823D01*
X194055Y859169D01*
X195718Y863183D01*
X198791Y866256D01*
X202805Y867919D01*
X207151Y867919D01*
X211165Y866256D01*
X214238Y863183D01*
X215901Y859169D01*
X215901Y854823D01*
X214238Y850809D01*
X211165Y847736D01*
X207151Y846073D01*
X202805Y846073D01*
G37*
%LPD*%
%LPC*%
G36*
X455027Y370077D02*
X455027Y370077D01*
X451013Y371740D01*
X447940Y374813D01*
X446277Y378827D01*
X446277Y383173D01*
X447940Y387187D01*
X451013Y390260D01*
X455027Y391923D01*
X459373Y391923D01*
X463387Y390260D01*
X466460Y387187D01*
X468123Y383173D01*
X468123Y378827D01*
X466460Y374813D01*
X463387Y371740D01*
X459373Y370077D01*
X455027Y370077D01*
G37*
%LPD*%
%LPC*%
G36*
X111365Y842771D02*
X111365Y842771D01*
X107351Y844434D01*
X104278Y847507D01*
X102615Y851521D01*
X102615Y855867D01*
X104278Y859881D01*
X107351Y862954D01*
X111365Y864617D01*
X115711Y864617D01*
X119725Y862954D01*
X122798Y859881D01*
X124461Y855867D01*
X124461Y851521D01*
X122798Y847507D01*
X119725Y844434D01*
X115711Y842771D01*
X111365Y842771D01*
G37*
%LPD*%
%LPC*%
G36*
X273163Y838961D02*
X273163Y838961D01*
X269149Y840624D01*
X266076Y843697D01*
X264413Y847711D01*
X264413Y852057D01*
X266076Y856071D01*
X269149Y859144D01*
X273163Y860807D01*
X277509Y860807D01*
X281523Y859144D01*
X284596Y856071D01*
X286259Y852057D01*
X286259Y847711D01*
X284596Y843697D01*
X281523Y840624D01*
X277509Y838961D01*
X273163Y838961D01*
G37*
%LPD*%
%LPC*%
G36*
X202805Y795273D02*
X202805Y795273D01*
X198791Y796936D01*
X195718Y800009D01*
X194055Y804023D01*
X194055Y808369D01*
X195718Y812383D01*
X198791Y815456D01*
X202805Y817119D01*
X207151Y817119D01*
X211165Y815456D01*
X214238Y812383D01*
X215901Y808369D01*
X215901Y804023D01*
X214238Y800009D01*
X211165Y796936D01*
X207151Y795273D01*
X202805Y795273D01*
G37*
%LPD*%
%LPC*%
G36*
X273163Y813561D02*
X273163Y813561D01*
X269149Y815224D01*
X266076Y818297D01*
X264413Y822311D01*
X264413Y826657D01*
X266076Y830671D01*
X269149Y833744D01*
X273163Y835407D01*
X277509Y835407D01*
X281523Y833744D01*
X284596Y830671D01*
X286259Y826657D01*
X286259Y822311D01*
X284596Y818297D01*
X281523Y815224D01*
X277509Y813561D01*
X273163Y813561D01*
G37*
%LPD*%
%LPC*%
G36*
X254214Y554255D02*
X254214Y554255D01*
X252264Y555063D01*
X250771Y556556D01*
X249963Y558506D01*
X249963Y560618D01*
X250771Y562568D01*
X251440Y563237D01*
X251513Y563331D01*
X251591Y563420D01*
X251610Y563456D01*
X251635Y563488D01*
X251682Y563597D01*
X251736Y563703D01*
X251745Y563742D01*
X251761Y563780D01*
X251780Y563897D01*
X251806Y564013D01*
X251804Y564054D01*
X251811Y564094D01*
X251800Y564212D01*
X251796Y564331D01*
X251785Y564370D01*
X251781Y564410D01*
X251741Y564522D01*
X251708Y564637D01*
X251687Y564672D01*
X251673Y564710D01*
X251607Y564808D01*
X251546Y564911D01*
X251506Y564956D01*
X251495Y564973D01*
X251479Y564986D01*
X251440Y565032D01*
X250771Y565700D01*
X249963Y567650D01*
X249963Y569762D01*
X250771Y571712D01*
X251694Y572634D01*
X251766Y572728D01*
X251845Y572818D01*
X251864Y572854D01*
X251889Y572886D01*
X251936Y572995D01*
X251990Y573101D01*
X251999Y573140D01*
X252015Y573178D01*
X252034Y573295D01*
X252060Y573411D01*
X252058Y573452D01*
X252065Y573492D01*
X252054Y573610D01*
X252050Y573729D01*
X252039Y573768D01*
X252035Y573808D01*
X251995Y573921D01*
X251962Y574035D01*
X251941Y574069D01*
X251927Y574108D01*
X251861Y574206D01*
X251800Y574309D01*
X251760Y574354D01*
X251749Y574371D01*
X251734Y574384D01*
X251694Y574429D01*
X251279Y574844D01*
X250471Y576794D01*
X250471Y578906D01*
X251279Y580856D01*
X252772Y582349D01*
X254722Y583157D01*
X256834Y583157D01*
X258784Y582349D01*
X260277Y580856D01*
X261085Y578906D01*
X261085Y576794D01*
X260277Y574844D01*
X259354Y573921D01*
X259281Y573827D01*
X259203Y573738D01*
X259184Y573702D01*
X259159Y573670D01*
X259112Y573561D01*
X259058Y573455D01*
X259049Y573415D01*
X259033Y573378D01*
X259014Y573261D01*
X258988Y573145D01*
X258990Y573104D01*
X258983Y573064D01*
X258994Y572945D01*
X258998Y572827D01*
X259009Y572788D01*
X259013Y572748D01*
X259053Y572635D01*
X259086Y572521D01*
X259107Y572486D01*
X259121Y572448D01*
X259187Y572350D01*
X259248Y572247D01*
X259288Y572202D01*
X259299Y572185D01*
X259314Y572172D01*
X259354Y572126D01*
X259769Y571712D01*
X260577Y569762D01*
X260577Y567650D01*
X259769Y565700D01*
X259100Y565032D01*
X259027Y564938D01*
X258949Y564848D01*
X258930Y564812D01*
X258905Y564780D01*
X258858Y564671D01*
X258804Y564565D01*
X258795Y564526D01*
X258779Y564488D01*
X258760Y564371D01*
X258734Y564255D01*
X258736Y564214D01*
X258729Y564174D01*
X258740Y564056D01*
X258744Y563937D01*
X258755Y563898D01*
X258759Y563858D01*
X258799Y563746D01*
X258832Y563631D01*
X258853Y563596D01*
X258867Y563558D01*
X258933Y563460D01*
X258994Y563357D01*
X259034Y563312D01*
X259045Y563295D01*
X259060Y563282D01*
X259100Y563237D01*
X259769Y562568D01*
X260577Y560618D01*
X260577Y558506D01*
X259769Y556556D01*
X258276Y555063D01*
X256326Y554255D01*
X254214Y554255D01*
G37*
%LPD*%
%LPC*%
G36*
X522946Y818669D02*
X522946Y818669D01*
X520996Y819477D01*
X519503Y820970D01*
X518695Y822920D01*
X518695Y825032D01*
X519503Y826982D01*
X520996Y828475D01*
X522946Y829283D01*
X524342Y829283D01*
X524391Y829289D01*
X524440Y829287D01*
X524548Y829309D01*
X524657Y829323D01*
X524703Y829341D01*
X524752Y829351D01*
X524851Y829399D01*
X524953Y829440D01*
X524993Y829469D01*
X525038Y829491D01*
X525121Y829562D01*
X525210Y829626D01*
X525242Y829665D01*
X525280Y829697D01*
X525343Y829787D01*
X525413Y829871D01*
X525434Y829916D01*
X525463Y829957D01*
X525502Y830060D01*
X525548Y830159D01*
X525558Y830208D01*
X525575Y830254D01*
X525588Y830364D01*
X525608Y830471D01*
X525605Y830521D01*
X525611Y830570D01*
X525595Y830679D01*
X525588Y830789D01*
X525573Y830836D01*
X525566Y830885D01*
X525514Y831038D01*
X525299Y831556D01*
X525299Y833668D01*
X526107Y835618D01*
X527600Y837111D01*
X529550Y837919D01*
X531662Y837919D01*
X533612Y837111D01*
X535105Y835618D01*
X535913Y833668D01*
X535913Y831556D01*
X535105Y829606D01*
X533612Y828113D01*
X531662Y827305D01*
X530266Y827305D01*
X530217Y827299D01*
X530168Y827301D01*
X530060Y827279D01*
X529951Y827265D01*
X529905Y827247D01*
X529856Y827237D01*
X529757Y827189D01*
X529655Y827148D01*
X529615Y827119D01*
X529570Y827097D01*
X529487Y827026D01*
X529398Y826962D01*
X529366Y826923D01*
X529328Y826891D01*
X529265Y826801D01*
X529195Y826717D01*
X529174Y826672D01*
X529145Y826631D01*
X529106Y826528D01*
X529060Y826429D01*
X529050Y826380D01*
X529033Y826334D01*
X529020Y826224D01*
X529000Y826117D01*
X529003Y826067D01*
X528997Y826018D01*
X529013Y825909D01*
X529020Y825799D01*
X529035Y825752D01*
X529042Y825703D01*
X529094Y825550D01*
X529309Y825032D01*
X529309Y822920D01*
X528501Y820970D01*
X527008Y819477D01*
X525058Y818669D01*
X522946Y818669D01*
G37*
%LPD*%
%LPC*%
G36*
X260564Y624613D02*
X260564Y624613D01*
X258614Y625421D01*
X257121Y626914D01*
X256313Y628864D01*
X256313Y630976D01*
X257121Y632926D01*
X258298Y634103D01*
X258371Y634197D01*
X258449Y634286D01*
X258468Y634322D01*
X258493Y634354D01*
X258540Y634463D01*
X258594Y634569D01*
X258603Y634608D01*
X258619Y634646D01*
X258638Y634763D01*
X258664Y634879D01*
X258662Y634920D01*
X258669Y634960D01*
X258658Y635078D01*
X258654Y635197D01*
X258643Y635236D01*
X258639Y635276D01*
X258599Y635388D01*
X258566Y635503D01*
X258545Y635538D01*
X258531Y635576D01*
X258464Y635674D01*
X258404Y635777D01*
X258364Y635822D01*
X258353Y635839D01*
X258338Y635852D01*
X258298Y635898D01*
X257121Y637074D01*
X256313Y639024D01*
X256313Y641136D01*
X257121Y643086D01*
X258614Y644579D01*
X260564Y645387D01*
X262676Y645387D01*
X264626Y644579D01*
X266119Y643086D01*
X266927Y641136D01*
X266927Y639024D01*
X266119Y637074D01*
X264942Y635898D01*
X264869Y635803D01*
X264791Y635714D01*
X264772Y635678D01*
X264747Y635646D01*
X264700Y635537D01*
X264646Y635431D01*
X264637Y635392D01*
X264621Y635354D01*
X264602Y635237D01*
X264576Y635121D01*
X264578Y635080D01*
X264571Y635040D01*
X264582Y634922D01*
X264586Y634803D01*
X264597Y634764D01*
X264601Y634724D01*
X264641Y634611D01*
X264674Y634497D01*
X264695Y634463D01*
X264709Y634424D01*
X264775Y634326D01*
X264836Y634223D01*
X264876Y634178D01*
X264887Y634161D01*
X264903Y634148D01*
X264942Y634103D01*
X266119Y632926D01*
X266927Y630976D01*
X266927Y628864D01*
X266119Y626914D01*
X264626Y625421D01*
X262676Y624613D01*
X260564Y624613D01*
G37*
%LPD*%
%LPC*%
G36*
X504150Y832131D02*
X504150Y832131D01*
X502200Y832939D01*
X500707Y834432D01*
X499899Y836382D01*
X499899Y838494D01*
X500707Y840444D01*
X502200Y841937D01*
X504150Y842745D01*
X506262Y842745D01*
X508212Y841937D01*
X509705Y840444D01*
X510513Y838494D01*
X510513Y836382D01*
X509705Y834432D01*
X508212Y832939D01*
X506262Y832131D01*
X504150Y832131D01*
G37*
%LPD*%
%LPC*%
G36*
X516596Y838481D02*
X516596Y838481D01*
X514646Y839289D01*
X513153Y840782D01*
X512345Y842732D01*
X512345Y844844D01*
X513153Y846794D01*
X514646Y848287D01*
X516596Y849095D01*
X518708Y849095D01*
X520658Y848287D01*
X522151Y846794D01*
X522959Y844844D01*
X522959Y842732D01*
X522151Y840782D01*
X520658Y839289D01*
X518708Y838481D01*
X516596Y838481D01*
G37*
%LPD*%
%LPC*%
G36*
X463764Y840513D02*
X463764Y840513D01*
X461814Y841321D01*
X460321Y842814D01*
X459513Y844764D01*
X459513Y846876D01*
X460321Y848826D01*
X461814Y850319D01*
X463764Y851127D01*
X465876Y851127D01*
X467826Y850319D01*
X469319Y848826D01*
X470127Y846876D01*
X470127Y844764D01*
X469319Y842814D01*
X467826Y841321D01*
X465876Y840513D01*
X463764Y840513D01*
G37*
%LPD*%
%LPC*%
G36*
X551648Y868961D02*
X551648Y868961D01*
X549698Y869769D01*
X548205Y871262D01*
X547397Y873212D01*
X547397Y875324D01*
X548205Y877274D01*
X549698Y878767D01*
X551648Y879575D01*
X553760Y879575D01*
X555710Y878767D01*
X557203Y877274D01*
X558011Y875324D01*
X558011Y873212D01*
X557203Y871262D01*
X555710Y869769D01*
X553760Y868961D01*
X551648Y868961D01*
G37*
%LPD*%
%LPC*%
G36*
X497546Y799365D02*
X497546Y799365D01*
X495596Y800173D01*
X494103Y801666D01*
X493295Y803616D01*
X493295Y805728D01*
X494103Y807678D01*
X495596Y809171D01*
X497546Y809979D01*
X499658Y809979D01*
X501608Y809171D01*
X503101Y807678D01*
X503909Y805728D01*
X503909Y803616D01*
X503101Y801666D01*
X501608Y800173D01*
X499658Y799365D01*
X497546Y799365D01*
G37*
%LPD*%
%LPC*%
G36*
X354544Y779553D02*
X354544Y779553D01*
X352594Y780361D01*
X351101Y781854D01*
X350293Y783804D01*
X350293Y785916D01*
X351101Y787866D01*
X352594Y789359D01*
X354544Y790167D01*
X356656Y790167D01*
X358606Y789359D01*
X360099Y787866D01*
X360907Y785916D01*
X360907Y783804D01*
X360099Y781854D01*
X358606Y780361D01*
X356656Y779553D01*
X354544Y779553D01*
G37*
%LPD*%
%LPC*%
G36*
X297902Y779553D02*
X297902Y779553D01*
X295952Y780361D01*
X294459Y781854D01*
X293651Y783804D01*
X293651Y785916D01*
X294459Y787866D01*
X295952Y789359D01*
X297902Y790167D01*
X300014Y790167D01*
X301964Y789359D01*
X303457Y787866D01*
X304265Y785916D01*
X304265Y783804D01*
X303457Y781854D01*
X301964Y780361D01*
X300014Y779553D01*
X297902Y779553D01*
G37*
%LPD*%
%LPC*%
G36*
X524724Y779553D02*
X524724Y779553D01*
X522774Y780361D01*
X521281Y781854D01*
X520473Y783804D01*
X520473Y785916D01*
X521281Y787866D01*
X522774Y789359D01*
X524724Y790167D01*
X526836Y790167D01*
X528786Y789359D01*
X530279Y787866D01*
X531087Y785916D01*
X531087Y783804D01*
X530279Y781854D01*
X528786Y780361D01*
X526836Y779553D01*
X524724Y779553D01*
G37*
%LPD*%
%LPC*%
G36*
X458684Y779553D02*
X458684Y779553D01*
X456734Y780361D01*
X455241Y781854D01*
X454433Y783804D01*
X454433Y785916D01*
X455241Y787866D01*
X456734Y789359D01*
X458684Y790167D01*
X460796Y790167D01*
X462746Y789359D01*
X464239Y787866D01*
X465047Y785916D01*
X465047Y783804D01*
X464239Y781854D01*
X462746Y780361D01*
X460796Y779553D01*
X458684Y779553D01*
G37*
%LPD*%
%LPC*%
G36*
X539964Y916713D02*
X539964Y916713D01*
X538014Y917521D01*
X536521Y919014D01*
X535713Y920964D01*
X535713Y923076D01*
X536521Y925026D01*
X538014Y926519D01*
X539964Y927327D01*
X542076Y927327D01*
X544026Y926519D01*
X545519Y925026D01*
X546327Y923076D01*
X546327Y920964D01*
X545519Y919014D01*
X544026Y917521D01*
X542076Y916713D01*
X539964Y916713D01*
G37*
%LPD*%
%LPC*%
G36*
X162520Y766853D02*
X162520Y766853D01*
X160570Y767661D01*
X159077Y769154D01*
X158269Y771104D01*
X158269Y773216D01*
X159077Y775166D01*
X160570Y776659D01*
X162520Y777467D01*
X164632Y777467D01*
X166582Y776659D01*
X168075Y775166D01*
X168883Y773216D01*
X168883Y771104D01*
X168075Y769154D01*
X166582Y767661D01*
X164632Y766853D01*
X162520Y766853D01*
G37*
%LPD*%
%LPC*%
G36*
X316698Y933985D02*
X316698Y933985D01*
X314748Y934793D01*
X313255Y936286D01*
X312447Y938236D01*
X312447Y940348D01*
X313255Y942298D01*
X314748Y943791D01*
X316698Y944599D01*
X318810Y944599D01*
X320760Y943791D01*
X322253Y942298D01*
X323061Y940348D01*
X323061Y938236D01*
X322253Y936286D01*
X320760Y934793D01*
X318810Y933985D01*
X316698Y933985D01*
G37*
%LPD*%
%LPC*%
G36*
X260564Y677445D02*
X260564Y677445D01*
X258614Y678253D01*
X257121Y679746D01*
X256313Y681696D01*
X256313Y683808D01*
X257121Y685758D01*
X258614Y687251D01*
X260564Y688059D01*
X262676Y688059D01*
X264626Y687251D01*
X266119Y685758D01*
X266927Y683808D01*
X266927Y681696D01*
X266119Y679746D01*
X264626Y678253D01*
X262676Y677445D01*
X260564Y677445D01*
G37*
%LPD*%
%LPC*%
G36*
X595844Y662713D02*
X595844Y662713D01*
X593894Y663521D01*
X592401Y665014D01*
X591593Y666964D01*
X591593Y669076D01*
X592401Y671026D01*
X593894Y672519D01*
X595844Y673327D01*
X597956Y673327D01*
X599906Y672519D01*
X601399Y671026D01*
X602207Y669076D01*
X602207Y666964D01*
X601399Y665014D01*
X599906Y663521D01*
X597956Y662713D01*
X595844Y662713D01*
G37*
%LPD*%
%LPC*%
G36*
X265644Y660173D02*
X265644Y660173D01*
X263694Y660981D01*
X262201Y662474D01*
X261393Y664424D01*
X261393Y666536D01*
X262201Y668486D01*
X263694Y669979D01*
X265644Y670787D01*
X267756Y670787D01*
X269706Y669979D01*
X271199Y668486D01*
X272007Y666536D01*
X272007Y664424D01*
X271199Y662474D01*
X269706Y660981D01*
X267756Y660173D01*
X265644Y660173D01*
G37*
%LPD*%
%LPC*%
G36*
X306551Y388609D02*
X306551Y388609D01*
X304601Y389417D01*
X303108Y390910D01*
X302300Y392860D01*
X302300Y394972D01*
X303108Y396922D01*
X304601Y398415D01*
X306551Y399223D01*
X308662Y399223D01*
X310613Y398415D01*
X312106Y396922D01*
X312913Y394972D01*
X312913Y392860D01*
X312106Y390910D01*
X310613Y389417D01*
X308662Y388609D01*
X306551Y388609D01*
G37*
%LPD*%
%LPC*%
G36*
X215606Y596927D02*
X215606Y596927D01*
X213656Y597735D01*
X212163Y599228D01*
X211355Y601178D01*
X211355Y603290D01*
X212163Y605240D01*
X213656Y606733D01*
X215606Y607541D01*
X217718Y607541D01*
X219668Y606733D01*
X221161Y605240D01*
X221969Y603290D01*
X221969Y601178D01*
X221161Y599228D01*
X219668Y597735D01*
X217718Y596927D01*
X215606Y596927D01*
G37*
%LPD*%
%LPC*%
G36*
X593304Y578893D02*
X593304Y578893D01*
X591354Y579701D01*
X589861Y581194D01*
X589053Y583144D01*
X589053Y585256D01*
X589861Y587206D01*
X591354Y588699D01*
X593304Y589507D01*
X595416Y589507D01*
X597366Y588699D01*
X598859Y587206D01*
X599667Y585256D01*
X599667Y583144D01*
X598859Y581194D01*
X597366Y579701D01*
X595416Y578893D01*
X593304Y578893D01*
G37*
%LPD*%
%LPC*%
G36*
X369784Y439193D02*
X369784Y439193D01*
X367834Y440001D01*
X366341Y441494D01*
X365533Y443444D01*
X365533Y445556D01*
X366341Y447506D01*
X367834Y448999D01*
X369784Y449807D01*
X371896Y449807D01*
X373846Y448999D01*
X375339Y447506D01*
X376147Y445556D01*
X376147Y443444D01*
X375339Y441494D01*
X373846Y440001D01*
X371896Y439193D01*
X369784Y439193D01*
G37*
%LPD*%
%LPC*%
G36*
X260564Y540793D02*
X260564Y540793D01*
X258614Y541601D01*
X257121Y543094D01*
X256313Y545044D01*
X256313Y547156D01*
X257121Y549106D01*
X258614Y550599D01*
X260564Y551407D01*
X262676Y551407D01*
X264626Y550599D01*
X266119Y549106D01*
X266927Y547156D01*
X266927Y545044D01*
X266119Y543094D01*
X264626Y541601D01*
X262676Y540793D01*
X260564Y540793D01*
G37*
%LPD*%
%LPC*%
G36*
X435824Y439193D02*
X435824Y439193D01*
X433874Y440001D01*
X432381Y441494D01*
X431573Y443444D01*
X431573Y445556D01*
X432381Y447506D01*
X433874Y448999D01*
X435824Y449807D01*
X437936Y449807D01*
X439886Y448999D01*
X441379Y447506D01*
X442187Y445556D01*
X442187Y443444D01*
X441379Y441494D01*
X439886Y440001D01*
X437936Y439193D01*
X435824Y439193D01*
G37*
%LPD*%
%LPC*%
G36*
X309002Y364886D02*
X309002Y364886D01*
X307052Y365693D01*
X305559Y367186D01*
X304751Y369137D01*
X304751Y371248D01*
X305559Y373198D01*
X307052Y374691D01*
X309002Y375499D01*
X311113Y375499D01*
X313064Y374691D01*
X314557Y373198D01*
X315365Y371248D01*
X315365Y369137D01*
X314557Y367186D01*
X313064Y365693D01*
X311113Y364886D01*
X309002Y364886D01*
G37*
%LPD*%
%LPC*%
G36*
X377404Y451893D02*
X377404Y451893D01*
X375454Y452701D01*
X373961Y454194D01*
X373153Y456144D01*
X373153Y458256D01*
X373961Y460206D01*
X375454Y461699D01*
X377404Y462507D01*
X379516Y462507D01*
X381466Y461699D01*
X382959Y460206D01*
X383767Y458256D01*
X383767Y456144D01*
X382959Y454194D01*
X381466Y452701D01*
X379516Y451893D01*
X377404Y451893D01*
G37*
%LPD*%
%LPC*%
G36*
X537678Y454433D02*
X537678Y454433D01*
X535728Y455241D01*
X534235Y456734D01*
X533427Y458684D01*
X533427Y460796D01*
X534235Y462746D01*
X535728Y464239D01*
X537678Y465047D01*
X539790Y465047D01*
X541740Y464239D01*
X543233Y462746D01*
X544041Y460796D01*
X544041Y458684D01*
X543233Y456734D01*
X541740Y455241D01*
X539790Y454433D01*
X537678Y454433D01*
G37*
%LPD*%
%LPC*%
G36*
X593304Y523013D02*
X593304Y523013D01*
X591354Y523821D01*
X589861Y525314D01*
X589053Y527264D01*
X589053Y529376D01*
X589861Y531326D01*
X591354Y532819D01*
X593304Y533627D01*
X595416Y533627D01*
X597366Y532819D01*
X598859Y531326D01*
X599667Y529376D01*
X599667Y527264D01*
X598859Y525314D01*
X597366Y523821D01*
X595416Y523013D01*
X593304Y523013D01*
G37*
%LPD*%
%LPC*%
G36*
X138937Y538479D02*
X138937Y538479D01*
X138937Y547625D01*
X139194Y547585D01*
X140981Y547004D01*
X142655Y546151D01*
X144176Y545046D01*
X145504Y543718D01*
X146609Y542197D01*
X147462Y540523D01*
X148043Y538736D01*
X148083Y538479D01*
X138937Y538479D01*
G37*
%LPD*%
%LPC*%
G36*
X434339Y383539D02*
X434339Y383539D01*
X434339Y392685D01*
X434596Y392645D01*
X436383Y392064D01*
X438057Y391211D01*
X439578Y390106D01*
X440906Y388778D01*
X442011Y387257D01*
X442864Y385583D01*
X443445Y383796D01*
X443485Y383539D01*
X434339Y383539D01*
G37*
%LPD*%
%LPC*%
G36*
X116077Y932433D02*
X116077Y932433D01*
X116077Y941579D01*
X116334Y941539D01*
X118121Y940958D01*
X119795Y940105D01*
X121316Y939000D01*
X122644Y937672D01*
X123749Y936151D01*
X124602Y934477D01*
X125183Y932690D01*
X125223Y932433D01*
X116077Y932433D01*
G37*
%LPD*%
%LPC*%
G36*
X138937Y533401D02*
X138937Y533401D01*
X148083Y533401D01*
X148043Y533144D01*
X147462Y531357D01*
X146609Y529683D01*
X145504Y528162D01*
X144176Y526834D01*
X142655Y525729D01*
X140981Y524876D01*
X139194Y524295D01*
X138937Y524255D01*
X138937Y533401D01*
G37*
%LPD*%
%LPC*%
G36*
X101853Y932433D02*
X101853Y932433D01*
X101893Y932690D01*
X102474Y934477D01*
X103327Y936151D01*
X104432Y937672D01*
X105760Y939000D01*
X107281Y940105D01*
X108955Y940958D01*
X110742Y941539D01*
X110999Y941579D01*
X110999Y932433D01*
X101853Y932433D01*
G37*
%LPD*%
%LPC*%
G36*
X124713Y538479D02*
X124713Y538479D01*
X124753Y538736D01*
X125334Y540523D01*
X126187Y542197D01*
X127292Y543718D01*
X128620Y545046D01*
X130141Y546151D01*
X131815Y547004D01*
X133602Y547585D01*
X133859Y547625D01*
X133859Y538479D01*
X124713Y538479D01*
G37*
%LPD*%
%LPC*%
G36*
X434339Y378461D02*
X434339Y378461D01*
X443485Y378461D01*
X443445Y378204D01*
X442864Y376417D01*
X442011Y374743D01*
X440906Y373222D01*
X439578Y371894D01*
X438057Y370789D01*
X436383Y369936D01*
X434596Y369355D01*
X434339Y369315D01*
X434339Y378461D01*
G37*
%LPD*%
%LPC*%
G36*
X420115Y383539D02*
X420115Y383539D01*
X420155Y383796D01*
X420736Y385583D01*
X421589Y387257D01*
X422694Y388778D01*
X424022Y390106D01*
X425543Y391211D01*
X427217Y392064D01*
X429004Y392645D01*
X429261Y392685D01*
X429261Y383539D01*
X420115Y383539D01*
G37*
%LPD*%
%LPC*%
G36*
X116077Y927355D02*
X116077Y927355D01*
X125223Y927355D01*
X125183Y927098D01*
X124602Y925311D01*
X123749Y923637D01*
X122644Y922116D01*
X121316Y920788D01*
X119795Y919683D01*
X118121Y918830D01*
X116334Y918249D01*
X116077Y918209D01*
X116077Y927355D01*
G37*
%LPD*%
%LPC*%
G36*
X133602Y524295D02*
X133602Y524295D01*
X131815Y524876D01*
X130141Y525729D01*
X128620Y526834D01*
X127292Y528162D01*
X126187Y529683D01*
X125334Y531357D01*
X124753Y533144D01*
X124713Y533401D01*
X133859Y533401D01*
X133859Y524255D01*
X133602Y524295D01*
G37*
%LPD*%
%LPC*%
G36*
X429004Y369355D02*
X429004Y369355D01*
X427217Y369936D01*
X425543Y370789D01*
X424022Y371894D01*
X422694Y373222D01*
X421589Y374743D01*
X420736Y376417D01*
X420155Y378204D01*
X420115Y378461D01*
X429261Y378461D01*
X429261Y369315D01*
X429004Y369355D01*
G37*
%LPD*%
%LPC*%
G36*
X110742Y918249D02*
X110742Y918249D01*
X108955Y918830D01*
X107281Y919683D01*
X105760Y920788D01*
X104432Y922116D01*
X103327Y923637D01*
X102474Y925311D01*
X101893Y927098D01*
X101853Y927355D01*
X110999Y927355D01*
X110999Y918209D01*
X110742Y918249D01*
G37*
%LPD*%
%LPC*%
G36*
X134974Y433424D02*
X134974Y433424D01*
X134974Y442876D01*
X141003Y442876D01*
X140872Y442218D01*
X140282Y440795D01*
X139426Y439513D01*
X138960Y439047D01*
X138887Y438953D01*
X138809Y438864D01*
X138790Y438828D01*
X138766Y438796D01*
X138718Y438687D01*
X138664Y438581D01*
X138655Y438541D01*
X138639Y438504D01*
X138621Y438387D01*
X138594Y438271D01*
X138596Y438230D01*
X138589Y438190D01*
X138601Y438071D01*
X138604Y437953D01*
X138615Y437914D01*
X138619Y437874D01*
X138660Y437761D01*
X138693Y437647D01*
X138713Y437612D01*
X138727Y437574D01*
X138794Y437476D01*
X138854Y437373D01*
X138894Y437328D01*
X138905Y437311D01*
X138921Y437298D01*
X138961Y437252D01*
X139426Y436787D01*
X140282Y435505D01*
X140872Y434082D01*
X141003Y433424D01*
X134974Y433424D01*
G37*
%LPD*%
%LPC*%
G36*
X113537Y929893D02*
X113537Y929893D01*
X113537Y929895D01*
X113539Y929895D01*
X113539Y929893D01*
X113537Y929893D01*
G37*
%LPD*%
%LPC*%
G36*
X136397Y535939D02*
X136397Y535939D01*
X136397Y535941D01*
X136399Y535941D01*
X136399Y535939D01*
X136397Y535939D01*
G37*
%LPD*%
%LPC*%
G36*
X431799Y380999D02*
X431799Y380999D01*
X431799Y381001D01*
X431801Y381001D01*
X431801Y380999D01*
X431799Y380999D01*
G37*
%LPD*%
D10*
X113538Y929894D03*
X113538Y904494D03*
X113538Y879094D03*
X113538Y853694D03*
X113538Y828294D03*
X113538Y802894D03*
X113538Y777494D03*
X136398Y535940D03*
X110998Y535940D03*
X431800Y381000D03*
X457200Y381000D03*
D11*
X120650Y444500D03*
X133350Y444500D03*
X120650Y457200D03*
X133350Y457200D03*
X120650Y469900D03*
X133350Y469900D03*
X120650Y431800D03*
X133350Y431800D03*
X120650Y419100D03*
X133350Y419100D03*
D10*
X275336Y824484D03*
X275336Y849884D03*
X275336Y875284D03*
X275336Y900684D03*
X275336Y926084D03*
X204978Y933196D03*
X204978Y907796D03*
X204978Y882396D03*
X204978Y856996D03*
X204978Y831596D03*
X204978Y806196D03*
D12*
X298958Y784860D03*
X238760Y680720D03*
X165608Y657860D03*
X159258Y753872D03*
X194056Y566166D03*
X396240Y365760D03*
X391160Y411480D03*
X421640Y411480D03*
X195580Y370840D03*
X490220Y431800D03*
X553720Y398780D03*
X568960Y431800D03*
X462280Y457200D03*
X408940Y457200D03*
X261620Y589280D03*
X261620Y533400D03*
X472440Y899160D03*
X550405Y914349D03*
X470662Y831342D03*
X513080Y784860D03*
X342900Y784860D03*
X419100Y784860D03*
X594360Y543560D03*
X594360Y614680D03*
X594360Y647700D03*
X594360Y690880D03*
X421640Y911860D03*
X508000Y876300D03*
X370840Y444500D03*
X436880Y444500D03*
X378460Y457200D03*
X216662Y602234D03*
X261620Y629920D03*
X261620Y546100D03*
X266700Y709930D03*
X266700Y665480D03*
X525780Y784860D03*
X355600Y784860D03*
X594360Y528320D03*
X594360Y584200D03*
X596900Y668020D03*
X459740Y784860D03*
X310058Y370192D03*
X498602Y804672D03*
X261620Y640080D03*
X307607Y393916D03*
X317754Y939292D03*
X464820Y845820D03*
X541020Y922020D03*
X255270Y568706D03*
X255778Y577850D03*
X255270Y559562D03*
X163576Y772160D03*
X261620Y682752D03*
X538734Y459740D03*
X552704Y874268D03*
X517652Y843788D03*
X505206Y837438D03*
X530606Y832612D03*
X524002Y823976D03*
X267208Y696468D03*
X259334Y704342D03*
X260604Y718566D03*
X267970Y726694D03*
X269494Y743458D03*
X262382Y736600D03*
M02*
