G04 EAGLE Gerber RS-274X export*
G75*
%MOMM*%
%FSLAX34Y34*%
%LPD*%
%INSolder_Mask Top*%
%IPPOS*%
%AMOC8*
5,1,8,0,0,1.08239X$1,22.5*%
G01*
%ADD10R,1.152400X1.252400*%
%ADD11R,1.252400X1.152400*%
%ADD12R,1.052400X1.002400*%
%ADD13R,1.002400X1.052400*%
%ADD14R,2.652400X1.352400*%
%ADD15C,1.352400*%
%ADD16C,2.032000*%
%ADD17R,1.552400X1.352400*%
%ADD18R,0.432400X1.652400*%
%ADD19R,0.552400X1.652400*%
%ADD20R,1.652400X0.552400*%
%ADD21R,1.652400X0.432400*%
%ADD22R,0.372400X0.862400*%
%ADD23R,0.862400X0.372400*%
%ADD24R,1.852400X1.852400*%
%ADD25C,1.208800*%
%ADD26R,2.387600X1.371600*%
%ADD27R,2.352400X3.752400*%
%ADD28R,2.152400X1.652400*%
%ADD29R,2.152400X3.952400*%
%ADD30C,0.908800*%


D10*
X391160Y445380D03*
X391160Y428380D03*
X222504Y582794D03*
X222504Y565794D03*
D11*
X194936Y655574D03*
X177936Y655574D03*
D10*
X224790Y706492D03*
X224790Y689492D03*
D11*
X542680Y444500D03*
X559680Y444500D03*
X513960Y444500D03*
X496960Y444500D03*
D10*
X419100Y445380D03*
X419100Y428380D03*
X139446Y906916D03*
X139446Y923916D03*
D12*
X553720Y888280D03*
X553720Y899880D03*
X508000Y906060D03*
X508000Y917660D03*
X487680Y846540D03*
X487680Y834940D03*
D13*
X428540Y838200D03*
X440140Y838200D03*
X440140Y878840D03*
X428540Y878840D03*
D12*
X492760Y917660D03*
X492760Y906060D03*
D14*
X400800Y837800D03*
X335800Y826800D03*
X400800Y877800D03*
X400800Y907800D03*
D15*
X368300Y923800D03*
X368300Y853800D03*
D16*
X113538Y929894D03*
X113538Y904494D03*
X113538Y879094D03*
X113538Y853694D03*
X113538Y828294D03*
X113538Y802894D03*
X113538Y777494D03*
X136398Y535940D03*
X110998Y535940D03*
X431800Y381000D03*
X457200Y381000D03*
D10*
X289522Y371852D03*
X289522Y388852D03*
X329578Y370976D03*
X329578Y387976D03*
X208280Y377580D03*
X208280Y394580D03*
X381000Y372500D03*
X381000Y389500D03*
D11*
X531105Y808495D03*
X514105Y808495D03*
D17*
X517320Y398400D03*
X539320Y398400D03*
X517320Y414400D03*
X539320Y414400D03*
D18*
X389300Y473300D03*
X394300Y473300D03*
X399300Y473300D03*
X404300Y473300D03*
X409300Y473300D03*
X414300Y473300D03*
X419300Y473300D03*
X424300Y473300D03*
X369300Y473300D03*
X374300Y473300D03*
X379300Y473300D03*
X384300Y473300D03*
X349300Y473300D03*
X354300Y473300D03*
X359300Y473300D03*
X364300Y473300D03*
X429300Y473300D03*
X434300Y473300D03*
X439300Y473300D03*
X444300Y473300D03*
X329300Y473300D03*
X334300Y473300D03*
X339300Y473300D03*
X344300Y473300D03*
X449300Y473300D03*
X454300Y473300D03*
X459300Y473300D03*
X464300Y473300D03*
X469300Y473300D03*
X474300Y473300D03*
X309300Y473300D03*
D19*
X559900Y473300D03*
X303700Y473300D03*
D18*
X314300Y473300D03*
X319300Y473300D03*
X324300Y473300D03*
X479300Y473300D03*
X484300Y473300D03*
X489300Y473300D03*
X494300Y473300D03*
X499300Y473300D03*
X504300Y473300D03*
X509300Y473300D03*
X514300Y473300D03*
X519300Y473300D03*
X524300Y473300D03*
X529300Y473300D03*
X534300Y473300D03*
X539300Y473300D03*
X544300Y473300D03*
X549300Y473300D03*
X554300Y473300D03*
D20*
X580800Y494200D03*
D21*
X580800Y499800D03*
X580800Y504800D03*
X580800Y509800D03*
X580800Y514800D03*
X580800Y519800D03*
X580800Y524800D03*
X580800Y529800D03*
X580800Y534800D03*
X580800Y539800D03*
X580800Y544800D03*
X580800Y549800D03*
X580800Y554800D03*
X580800Y559800D03*
X580800Y564800D03*
X580800Y569800D03*
X580800Y574800D03*
X580800Y579800D03*
X580800Y584800D03*
X580800Y589800D03*
X580800Y594800D03*
X580800Y599800D03*
X580800Y604800D03*
X580800Y609800D03*
X580800Y614800D03*
X580800Y619800D03*
X580800Y624800D03*
X580800Y629800D03*
X580800Y634800D03*
X580800Y639800D03*
X580800Y644800D03*
X580800Y649800D03*
X580800Y654800D03*
X580800Y659800D03*
X580800Y664800D03*
X580800Y669800D03*
X580800Y674800D03*
X580800Y679800D03*
X580800Y684800D03*
X580800Y689800D03*
X580800Y694800D03*
X580800Y699800D03*
X580800Y704800D03*
X580800Y709800D03*
X580800Y714800D03*
X580800Y719800D03*
X580800Y724800D03*
X580800Y729800D03*
X580800Y734800D03*
X580800Y739800D03*
X580800Y744800D03*
D20*
X580800Y750400D03*
D19*
X559900Y771300D03*
D18*
X554300Y771300D03*
X549300Y771300D03*
X544300Y771300D03*
X539300Y771300D03*
X534300Y771300D03*
X529300Y771300D03*
X524300Y771300D03*
X519300Y771300D03*
X514300Y771300D03*
X509300Y771300D03*
X504300Y771300D03*
X499300Y771300D03*
X494300Y771300D03*
X489300Y771300D03*
X484300Y771300D03*
X479300Y771300D03*
X474300Y771300D03*
X469300Y771300D03*
X464300Y771300D03*
X459300Y771300D03*
X454300Y771300D03*
X449300Y771300D03*
X444300Y771300D03*
X439300Y771300D03*
X434300Y771300D03*
X429300Y771300D03*
X424300Y771300D03*
X419300Y771300D03*
X414300Y771300D03*
X409300Y771300D03*
X404300Y771300D03*
X399300Y771300D03*
X394300Y771300D03*
X389300Y771300D03*
X384300Y771300D03*
X379300Y771300D03*
X374300Y771300D03*
X369300Y771300D03*
X364300Y771300D03*
X359300Y771300D03*
X354300Y771300D03*
X349300Y771300D03*
X344300Y771300D03*
X339300Y771300D03*
X334300Y771300D03*
X329300Y771300D03*
X324300Y771300D03*
X319300Y771300D03*
X314300Y771300D03*
X309300Y771300D03*
D19*
X303700Y771300D03*
D20*
X282800Y750400D03*
D21*
X282800Y744800D03*
X282800Y739800D03*
X282800Y734800D03*
X282800Y729800D03*
X282800Y724800D03*
X282800Y719800D03*
X282800Y714800D03*
X282800Y709800D03*
X282800Y704800D03*
X282800Y699800D03*
X282800Y694800D03*
X282800Y689800D03*
X282800Y684800D03*
X282800Y679800D03*
X282800Y674800D03*
X282800Y669800D03*
X282800Y664800D03*
X282800Y659800D03*
X282800Y654800D03*
X282800Y649800D03*
X282800Y644800D03*
X282800Y639800D03*
X282800Y634800D03*
X282800Y629800D03*
X282800Y624800D03*
X282800Y619800D03*
X282800Y614800D03*
X282800Y609800D03*
X282800Y604800D03*
X282800Y599800D03*
X282800Y594800D03*
X282800Y589800D03*
X282800Y584800D03*
X282800Y579800D03*
X282800Y574800D03*
X282800Y569800D03*
X282800Y564800D03*
X282800Y559800D03*
X282800Y554800D03*
X282800Y549800D03*
X282800Y544800D03*
X282800Y539800D03*
X282800Y534800D03*
X282800Y529800D03*
X282800Y524800D03*
X282800Y519800D03*
X282800Y514800D03*
X282800Y509800D03*
X282800Y504800D03*
X282800Y499800D03*
D20*
X282800Y494200D03*
D22*
X516000Y890350D03*
X512000Y890350D03*
X508000Y890350D03*
X504000Y890350D03*
X500000Y890350D03*
D23*
X493950Y884300D03*
X493950Y880300D03*
X493950Y876300D03*
X493950Y872300D03*
X493950Y868300D03*
D22*
X500000Y862250D03*
X504000Y862250D03*
X508000Y862250D03*
X512000Y862250D03*
X516000Y862250D03*
D23*
X522050Y868300D03*
X522050Y872300D03*
X522050Y876300D03*
X522050Y880300D03*
X522050Y884300D03*
D24*
X508000Y876300D03*
D25*
X120650Y444500D03*
X133350Y444500D03*
X120650Y457200D03*
X133350Y457200D03*
X120650Y469900D03*
X133350Y469900D03*
X120650Y431800D03*
X133350Y431800D03*
X120650Y419100D03*
X133350Y419100D03*
D26*
X191262Y587248D03*
X191262Y610362D03*
X191262Y633476D03*
D27*
X129284Y610362D03*
D28*
X192536Y685406D03*
X192536Y708406D03*
X192536Y731406D03*
D29*
X129536Y708406D03*
D11*
X194174Y753618D03*
X177174Y753618D03*
D16*
X275336Y824484D03*
X275336Y849884D03*
X275336Y875284D03*
X275336Y900684D03*
X275336Y926084D03*
X204978Y933196D03*
X204978Y907796D03*
X204978Y882396D03*
X204978Y856996D03*
X204978Y831596D03*
X204978Y806196D03*
D30*
X298958Y784860D03*
X238760Y680720D03*
X165608Y657860D03*
X159258Y753872D03*
X194056Y566166D03*
X396240Y365760D03*
X391160Y411480D03*
X421640Y411480D03*
X195580Y370840D03*
X490220Y431800D03*
X553720Y398780D03*
X568960Y431800D03*
X462280Y457200D03*
X408940Y457200D03*
X261620Y589280D03*
X261620Y533400D03*
X472440Y899160D03*
X550405Y914349D03*
X470662Y831342D03*
X513080Y784860D03*
X342900Y784860D03*
X419100Y784860D03*
X594360Y543560D03*
X594360Y614680D03*
X594360Y647700D03*
X594360Y690880D03*
X421640Y911860D03*
X508000Y876300D03*
X370840Y444500D03*
X436880Y444500D03*
X378460Y457200D03*
X216662Y602234D03*
X261620Y629920D03*
X261620Y546100D03*
X266700Y709930D03*
X266700Y665480D03*
X525780Y784860D03*
X355600Y784860D03*
X594360Y528320D03*
X594360Y584200D03*
X596900Y668020D03*
X459740Y784860D03*
X310058Y370192D03*
X498602Y804672D03*
X261620Y640080D03*
X307607Y393916D03*
X317754Y939292D03*
X464820Y845820D03*
X541020Y922020D03*
X255270Y568706D03*
X255778Y577850D03*
X255270Y559562D03*
X163576Y772160D03*
X261620Y682752D03*
X538734Y459740D03*
X552704Y874268D03*
X517652Y843788D03*
X505206Y837438D03*
X530606Y832612D03*
X524002Y823976D03*
X267208Y696468D03*
X259334Y704342D03*
X260604Y718566D03*
X267970Y726694D03*
X269494Y743458D03*
X262382Y736600D03*
M02*
