M48
;GenerationSoftware,Autodesk,EAGLE,9.2.1*%
;CreationDate,2019-04-01T23:08:26Z*%
FMAT,2
ICI,OFF
METRIC,TZ,000.000
T4C0.350
T3C0.650
T2C1.016
T1C1.200
%
G90
M71
T1
X36830Y92380
X36830Y85380
T2
X20498Y85700
X20498Y88240
X20498Y90780
X20498Y93320
X27534Y92608
X27534Y90068
X27534Y87528
X27534Y84988
X27534Y82448
X20498Y83160
X11354Y92989
X11354Y90449
X11354Y87909
X11354Y85369
X11354Y82829
X20498Y80620
X11354Y80289
X11354Y77749
X13640Y53594
X45720Y38100
X43180Y38100
X11100Y53594
T3
X12065Y44450
X13335Y44450
X12065Y45720
X12065Y46990
X13335Y46990
X12065Y43180
X13335Y43180
X12065Y41910
X13335Y41910
X13335Y45720
T4
X26670Y70993
X26670Y66548
X52578Y78486
X35560Y78486
X59436Y52832
X59436Y58420
X59690Y66802
X45974Y78486
X31006Y37019
X49860Y80467
X26162Y64008
X30761Y39392
X31775Y93929
X46482Y84582
X54102Y92202
X25527Y56871
X29896Y78486
X25527Y55956
X16358Y77216
X26162Y68275
X53873Y45974
X55270Y87427
X51765Y84379
X50521Y83744
X53061Y83261
X52400Y82398
X26721Y69647
X25933Y70434
X26060Y71857
X26797Y72669
X26949Y74346
X26238Y73660
X26162Y54610
X26162Y62992
X21666Y60223
X37846Y45720
X43688Y44450
X37084Y44450
X50800Y87630
X42164Y91186
X59436Y69088
X59436Y64770
X59436Y61468
X59436Y54356
X41910Y78486
X34290Y78486
X51308Y78486
X47066Y83134
X55041Y91435
X47244Y89916
X26162Y53340
X26162Y58928
X40894Y45720
X46228Y45720
X56896Y43180
X55372Y39878
X49022Y43180
X19558Y37084
X42164Y41148
X39116Y41148
X39624Y36576
X19406Y56617
X15926Y75387
X16561Y65786
X23876Y68072
X25578Y57785
M30